<svg width="512" height="277" viewBox="0 0 512 277" fill="none" xmlns="http://www.w3.org/2000/svg">
<path d="M0 10C0 4.47716 4.47715 0 10 0H502C507.523 0 512 4.47715 512 10V267C512 272.523 507.523 277 502 277H10C4.47715 277 0 272.523 0 267V10Z" fill="white"/>
<path d="M35.168 37.119C34.3747 37.119 33.6607 36.983 33.026 36.711C32.3913 36.4277 31.8927 36.031 31.53 35.521C31.1673 35.011 30.986 34.416 30.986 33.736H33.06C33.1053 34.2687 33.3037 34.705 33.655 35.045C34.0177 35.385 34.522 35.555 35.168 35.555C35.8367 35.555 36.358 35.3907 36.732 35.062C37.106 34.722 37.293 34.2857 37.293 33.753C37.293 33.3563 37.174 33.0333 36.936 32.784C36.7093 32.5347 36.4203 32.342 36.069 32.206C35.729 32.07 35.253 31.9227 34.641 31.764C33.8703 31.56 33.2413 31.356 32.754 31.152C32.278 30.9367 31.87 30.608 31.53 30.166C31.19 29.724 31.02 29.1347 31.02 28.398C31.02 27.718 31.19 27.123 31.53 26.613C31.87 26.103 32.346 25.712 32.958 25.44C33.57 25.168 34.2783 25.032 35.083 25.032C36.2277 25.032 37.1627 25.321 37.888 25.899C38.6247 26.4657 39.0327 27.2477 39.112 28.245H36.97C36.936 27.7803 36.732 27.395 36.358 27.089C35.9953 26.7717 35.5023 26.613 34.879 26.613C34.3123 26.613 33.8533 26.7603 33.502 27.055C33.162 27.3383 32.992 27.7633 32.992 28.33C32.992 28.6927 33.0997 28.993 33.315 29.231C33.5417 29.4577 33.825 29.639 34.165 29.775C34.505 29.911 34.9697 30.0583 35.559 30.217C36.341 30.4323 36.9757 30.6477 37.463 30.863C37.9617 31.0783 38.381 31.4127 38.721 31.866C39.0723 32.308 39.248 32.903 39.248 33.651C39.248 34.2517 39.0837 34.8183 38.755 35.351C38.4377 35.8837 37.9673 36.3143 37.344 36.643C36.732 36.9603 36.0067 37.119 35.168 37.119ZM50.1198 32.053C50.1198 32.3817 50.0971 32.6877 50.0518 32.971H42.8778C42.9344 33.753 43.2121 34.3763 43.7108 34.841C44.2094 35.2943 44.8271 35.521 45.5638 35.521C46.6064 35.521 47.3431 35.0847 47.7738 34.212H49.8648C49.5814 35.0733 49.0658 35.7817 48.3178 36.337C47.5811 36.881 46.6631 37.153 45.5638 37.153C44.6684 37.153 43.8638 36.9547 43.1498 36.558C42.4471 36.15 41.8918 35.5833 41.4838 34.858C41.0871 34.1213 40.8888 33.2713 40.8888 32.308C40.8888 31.3447 41.0814 30.5003 41.4668 29.775C41.8634 29.0383 42.4131 28.4717 43.1158 28.075C43.8298 27.6783 44.6458 27.48 45.5638 27.48C46.4478 27.48 47.2354 27.6727 47.9268 28.058C48.6181 28.4433 49.1564 28.9817 49.5418 29.673C49.9271 30.3643 50.1198 31.1577 50.1198 32.053ZM48.0968 31.577C48.0854 30.8177 47.8304 30.217 47.3318 29.775C46.8444 29.333 46.2268 29.112 45.4788 29.112C44.7988 29.112 44.2151 29.333 43.7278 29.775C43.2518 30.217 42.9741 30.8177 42.8948 31.577H48.0968ZM55.801 27.48C56.5263 27.48 57.1666 27.6273 57.722 27.922C58.2886 28.2053 58.7306 28.5623 59.048 28.993V27.633H61.003V37.153C61.003 38.0143 60.8216 38.7793 60.459 39.448C60.0963 40.128 59.5693 40.6607 58.878 41.046C58.198 41.4313 57.382 41.624 56.43 41.624C55.1606 41.624 54.1066 41.3237 53.268 40.723C52.4293 40.1337 51.9533 39.329 51.84 38.309H53.761C53.9083 38.7963 54.22 39.1873 54.696 39.482C55.1833 39.788 55.7613 39.941 56.43 39.941C57.212 39.941 57.841 39.703 58.317 39.227C58.8043 38.751 59.048 38.0597 59.048 37.153V35.589C58.7193 36.031 58.2716 36.405 57.705 36.711C57.1496 37.0057 56.515 37.153 55.801 37.153C54.985 37.153 54.237 36.949 53.557 36.541C52.8883 36.1217 52.3556 35.5437 51.959 34.807C51.5736 34.059 51.381 33.2147 51.381 32.274C51.381 31.3333 51.5736 30.5003 51.959 29.775C52.3556 29.0497 52.8883 28.4887 53.557 28.092C54.237 27.684 54.985 27.48 55.801 27.48ZM59.048 32.308C59.048 31.662 58.912 31.101 58.64 30.625C58.3793 30.149 58.0336 29.7863 57.603 29.537C57.1723 29.2877 56.7076 29.163 56.209 29.163C55.7103 29.163 55.2456 29.2877 54.815 29.537C54.3843 29.775 54.033 30.132 53.761 30.608C53.5003 31.0727 53.37 31.628 53.37 32.274C53.37 32.92 53.5003 33.4867 53.761 33.974C54.033 34.4613 54.3843 34.8353 54.815 35.096C55.257 35.3453 55.7216 35.47 56.209 35.47C56.7076 35.47 57.1723 35.3453 57.603 35.096C58.0336 34.8467 58.3793 34.484 58.64 34.008C58.912 33.5207 59.048 32.954 59.048 32.308ZM74.8874 27.48C75.6241 27.48 76.2814 27.633 76.8594 27.939C77.4488 28.245 77.9078 28.6983 78.2364 29.299C78.5764 29.8997 78.7464 30.625 78.7464 31.475V37H76.8254V31.764C76.8254 30.9253 76.6158 30.285 76.1964 29.843C75.7771 29.3897 75.2048 29.163 74.4794 29.163C73.7541 29.163 73.1761 29.3897 72.7454 29.843C72.3261 30.285 72.1164 30.9253 72.1164 31.764V37H70.1954V31.764C70.1954 30.9253 69.9858 30.285 69.5664 29.843C69.1471 29.3897 68.5748 29.163 67.8494 29.163C67.1241 29.163 66.5461 29.3897 66.1154 29.843C65.6961 30.285 65.4864 30.9253 65.4864 31.764V37H63.5484V27.633H65.4864V28.704C65.8038 28.3187 66.2061 28.0183 66.6934 27.803C67.1808 27.5877 67.7021 27.48 68.2574 27.48C69.0054 27.48 69.6741 27.6387 70.2634 27.956C70.8528 28.2733 71.3061 28.7323 71.6234 29.333C71.9068 28.7663 72.3488 28.3187 72.9494 27.99C73.5501 27.65 74.1961 27.48 74.8874 27.48ZM89.7975 32.053C89.7975 32.3817 89.7748 32.6877 89.7295 32.971H82.5555C82.6122 33.753 82.8898 34.3763 83.3885 34.841C83.8872 35.2943 84.5048 35.521 85.2415 35.521C86.2842 35.521 87.0208 35.0847 87.4515 34.212H89.5425C89.2592 35.0733 88.7435 35.7817 87.9955 36.337C87.2588 36.881 86.3408 37.153 85.2415 37.153C84.3462 37.153 83.5415 36.9547 82.8275 36.558C82.1248 36.15 81.5695 35.5833 81.1615 34.858C80.7648 34.1213 80.5665 33.2713 80.5665 32.308C80.5665 31.3447 80.7592 30.5003 81.1445 29.775C81.5412 29.0383 82.0908 28.4717 82.7935 28.075C83.5075 27.6783 84.3235 27.48 85.2415 27.48C86.1255 27.48 86.9132 27.6727 87.6045 28.058C88.2958 28.4433 88.8342 28.9817 89.2195 29.673C89.6048 30.3643 89.7975 31.1577 89.7975 32.053ZM87.7745 31.577C87.7632 30.8177 87.5082 30.217 87.0095 29.775C86.5222 29.333 85.9045 29.112 85.1565 29.112C84.4765 29.112 83.8928 29.333 83.4055 29.775C82.9295 30.217 82.6518 30.8177 82.5725 31.577H87.7745ZM96.4307 27.48C97.1674 27.48 97.8247 27.633 98.4027 27.939C98.992 28.245 99.451 28.6983 99.7797 29.299C100.108 29.8997 100.273 30.625 100.273 31.475V37H98.3517V31.764C98.3517 30.9253 98.142 30.285 97.7227 29.843C97.3034 29.3897 96.731 29.163 96.0057 29.163C95.2804 29.163 94.7024 29.3897 94.2717 29.843C93.8524 30.285 93.6427 30.9253 93.6427 31.764V37H91.7047V27.633H93.6427V28.704C93.96 28.3187 94.3624 28.0183 94.8497 27.803C95.3484 27.5877 95.8754 27.48 96.4307 27.48ZM105.006 29.214V34.399C105.006 34.7503 105.085 35.0053 105.244 35.164C105.414 35.3113 105.697 35.385 106.094 35.385H107.284V37H105.754C104.881 37 104.212 36.796 103.748 36.388C103.283 35.98 103.051 35.317 103.051 34.399V29.214H101.946V27.633H103.051V25.304H105.006V27.633H107.284V29.214H105.006ZM122.922 25.185L119.012 32.716V37H117.074V32.716L113.147 25.185H115.306L118.026 30.948L120.746 25.185H122.922ZM128.523 37.153C127.639 37.153 126.84 36.9547 126.126 36.558C125.412 36.15 124.851 35.5833 124.443 34.858C124.035 34.1213 123.831 33.2713 123.831 32.308C123.831 31.356 124.04 30.5117 124.46 29.775C124.879 29.0383 125.451 28.4717 126.177 28.075C126.902 27.6783 127.712 27.48 128.608 27.48C129.503 27.48 130.313 27.6783 131.039 28.075C131.764 28.4717 132.336 29.0383 132.756 29.775C133.175 30.5117 133.385 31.356 133.385 32.308C133.385 33.26 133.169 34.1043 132.739 34.841C132.308 35.5777 131.719 36.15 130.971 36.558C130.234 36.9547 129.418 37.153 128.523 37.153ZM128.523 35.521C129.021 35.521 129.486 35.3963 129.917 35.147C130.359 34.8977 130.716 34.535 130.988 34.059C131.26 33.5717 131.396 32.988 131.396 32.308C131.396 31.628 131.265 31.05 131.005 30.574C130.744 30.0867 130.398 29.724 129.968 29.486C129.537 29.2367 129.072 29.112 128.574 29.112C128.075 29.112 127.616 29.2367 127.197 29.486C126.777 29.724 126.437 30.0867 126.177 30.574C125.927 31.05 125.803 31.628 125.803 32.308C125.803 32.988 125.922 33.5717 126.16 34.059C126.409 34.5463 126.738 34.9147 127.146 35.164C127.565 35.402 128.024 35.521 128.523 35.521ZM143.783 27.633V37H141.845V35.895C141.539 36.2803 141.137 36.5863 140.638 36.813C140.151 37.0283 139.63 37.136 139.074 37.136C138.338 37.136 137.675 36.983 137.085 36.677C136.507 36.371 136.048 35.9177 135.708 35.317C135.38 34.7163 135.215 33.991 135.215 33.141V27.633H137.136V32.852C137.136 33.6907 137.346 34.3367 137.765 34.79C138.185 35.232 138.757 35.453 139.482 35.453C140.208 35.453 140.78 35.232 141.199 34.79C141.63 34.3367 141.845 33.6907 141.845 32.852V27.633H143.783ZM148.278 29.265C148.562 28.6983 148.936 28.262 149.4 27.956C149.876 27.6387 150.437 27.48 151.083 27.48V29.486H150.59C149.831 29.486 149.253 29.6787 148.856 30.064C148.471 30.4493 148.278 31.118 148.278 32.07V37H146.34V27.633H148.278V29.265ZM164.099 37L161.379 32.274H159.9V37H157.962V25.185H162.042C162.948 25.185 163.713 25.3437 164.337 25.661C164.971 25.9783 165.442 26.4033 165.748 26.936C166.065 27.4687 166.224 28.0637 166.224 28.721C166.224 29.4917 165.997 30.1943 165.544 30.829C165.102 31.4523 164.416 31.8773 163.487 32.104L166.411 37H164.099ZM159.9 30.744H162.042C162.767 30.744 163.311 30.5627 163.674 30.2C164.048 29.8373 164.235 29.3443 164.235 28.721C164.235 28.0863 164.053 27.5933 163.691 27.242C163.328 26.8793 162.778 26.698 162.042 26.698H159.9V30.744ZM177.288 32.053C177.288 32.3817 177.265 32.6877 177.22 32.971H170.046C170.102 33.753 170.38 34.3763 170.879 34.841C171.377 35.2943 171.995 35.521 172.732 35.521C173.774 35.521 174.511 35.0847 174.942 34.212H177.033C176.749 35.0733 176.234 35.7817 175.486 36.337C174.749 36.881 173.831 37.153 172.732 37.153C171.836 37.153 171.032 36.9547 170.318 36.558C169.615 36.15 169.06 35.5833 168.652 34.858C168.255 34.1213 168.057 33.2713 168.057 32.308C168.057 31.3447 168.249 30.5003 168.635 29.775C169.031 29.0383 169.581 28.4717 170.284 28.075C170.998 27.6783 171.814 27.48 172.732 27.48C173.616 27.48 174.403 27.6727 175.095 28.058C175.786 28.4433 176.324 28.9817 176.71 29.673C177.095 30.3643 177.288 31.1577 177.288 32.053ZM175.265 31.577C175.253 30.8177 174.998 30.217 174.5 29.775C174.012 29.333 173.395 29.112 172.647 29.112C171.967 29.112 171.383 29.333 170.896 29.775C170.42 30.217 170.142 30.8177 170.063 31.577H175.265ZM181.133 29.01C181.462 28.5793 181.909 28.2167 182.476 27.922C183.043 27.6273 183.683 27.48 184.397 27.48C185.213 27.48 185.955 27.684 186.624 28.092C187.304 28.4887 187.837 29.0497 188.222 29.775C188.607 30.5003 188.8 31.3333 188.8 32.274C188.8 33.2147 188.607 34.059 188.222 34.807C187.837 35.5437 187.304 36.1217 186.624 36.541C185.955 36.949 185.213 37.153 184.397 37.153C183.683 37.153 183.048 37.0113 182.493 36.728C181.938 36.4333 181.484 36.0707 181.133 35.64V41.454H179.195V27.633H181.133V29.01ZM186.828 32.274C186.828 31.628 186.692 31.0727 186.42 30.608C186.159 30.132 185.808 29.775 185.366 29.537C184.935 29.2877 184.471 29.163 183.972 29.163C183.485 29.163 183.02 29.2877 182.578 29.537C182.147 29.7863 181.796 30.149 181.524 30.625C181.263 31.101 181.133 31.662 181.133 32.308C181.133 32.954 181.263 33.5207 181.524 34.008C181.796 34.484 182.147 34.8467 182.578 35.096C183.02 35.3453 183.485 35.47 183.972 35.47C184.471 35.47 184.935 35.3453 185.366 35.096C185.808 34.8353 186.159 34.4613 186.42 33.974C186.692 33.4867 186.828 32.92 186.828 32.274ZM194.779 37.153C193.895 37.153 193.096 36.9547 192.382 36.558C191.668 36.15 191.107 35.5833 190.699 34.858C190.291 34.1213 190.087 33.2713 190.087 32.308C190.087 31.356 190.297 30.5117 190.716 29.775C191.136 29.0383 191.708 28.4717 192.433 28.075C193.159 27.6783 193.969 27.48 194.864 27.48C195.76 27.48 196.57 27.6783 197.295 28.075C198.021 28.4717 198.593 29.0383 199.012 29.775C199.432 30.5117 199.641 31.356 199.641 32.308C199.641 33.26 199.426 34.1043 198.995 34.841C198.565 35.5777 197.975 36.15 197.227 36.558C196.491 36.9547 195.675 37.153 194.779 37.153ZM194.779 35.521C195.278 35.521 195.743 35.3963 196.173 35.147C196.615 34.8977 196.972 34.535 197.244 34.059C197.516 33.5717 197.652 32.988 197.652 32.308C197.652 31.628 197.522 31.05 197.261 30.574C197.001 30.0867 196.655 29.724 196.224 29.486C195.794 29.2367 195.329 29.112 194.83 29.112C194.332 29.112 193.873 29.2367 193.453 29.486C193.034 29.724 192.694 30.0867 192.433 30.574C192.184 31.05 192.059 31.628 192.059 32.308C192.059 32.988 192.178 33.5717 192.416 34.059C192.666 34.5463 192.994 34.9147 193.402 35.164C193.822 35.402 194.281 35.521 194.779 35.521ZM203.495 29.265C203.779 28.6983 204.153 28.262 204.617 27.956C205.093 27.6387 205.654 27.48 206.3 27.48V29.486H205.807C205.048 29.486 204.47 29.6787 204.073 30.064C203.688 30.4493 203.495 31.118 203.495 32.07V37H201.557V27.633H203.495V29.265ZM210.343 29.214V34.399C210.343 34.7503 210.422 35.0053 210.581 35.164C210.751 35.3113 211.034 35.385 211.431 35.385H212.621V37H211.091C210.218 37 209.549 36.796 209.085 36.388C208.62 35.98 208.388 35.317 208.388 34.399V29.214H207.283V27.633H208.388V25.304H210.343V27.633H212.621V29.214H210.343ZM217.773 37.153C217.048 37.153 216.396 37.0227 215.818 36.762C215.24 36.49 214.781 36.1273 214.441 35.674C214.101 35.2093 213.92 34.6937 213.897 34.127H215.903C215.937 34.5577 216.124 34.9147 216.464 35.198C216.815 35.4813 217.252 35.623 217.773 35.623C218.317 35.623 218.736 35.5153 219.031 35.3C219.337 35.0733 219.49 34.773 219.49 34.399C219.49 34.059 219.32 33.7983 218.98 33.617C218.64 33.4357 218.113 33.2543 217.399 33.073C216.708 32.8803 216.141 32.699 215.699 32.529C215.268 32.3477 214.894 32.0757 214.577 31.713C214.26 31.339 214.101 30.8573 214.101 30.268C214.101 29.758 214.243 29.2933 214.526 28.874C214.809 28.4433 215.217 28.1033 215.75 27.854C216.294 27.6047 216.929 27.48 217.654 27.48C218.719 27.48 219.575 27.752 220.221 28.296C220.878 28.8287 221.23 29.5597 221.275 30.489H219.337C219.303 30.0357 219.133 29.6787 218.827 29.418C218.521 29.146 218.107 29.01 217.586 29.01C217.076 29.01 216.685 29.1177 216.413 29.333C216.141 29.537 216.005 29.8147 216.005 30.166C216.005 30.4153 216.096 30.625 216.277 30.795C216.458 30.965 216.685 31.101 216.957 31.203C217.229 31.2937 217.614 31.407 218.113 31.543C218.793 31.7243 219.348 31.9057 219.779 32.087C220.21 32.2683 220.578 32.546 220.884 32.92C221.19 33.2827 221.343 33.7587 221.343 34.348C221.343 34.8807 221.201 35.3623 220.918 35.793C220.635 36.2123 220.221 36.5467 219.677 36.796C219.144 37.034 218.51 37.153 217.773 37.153ZM234.909 30.931C235.543 31.0443 236.082 31.3787 236.524 31.934C236.966 32.4893 237.187 33.1183 237.187 33.821C237.187 34.4217 237.028 34.9657 236.711 35.453C236.405 35.929 235.957 36.3087 235.368 36.592C234.778 36.864 234.093 37 233.311 37H228.585V25.185H233.09C233.894 25.185 234.586 25.321 235.164 25.593C235.742 25.865 236.178 26.2333 236.473 26.698C236.767 27.1513 236.915 27.6613 236.915 28.228C236.915 28.908 236.733 29.4747 236.371 29.928C236.008 30.3813 235.521 30.7157 234.909 30.931ZM230.523 30.2H232.92C233.554 30.2 234.047 30.047 234.399 29.741C234.761 29.435 234.943 29.01 234.943 28.466C234.943 27.9107 234.761 27.48 234.399 27.174C234.047 26.8567 233.554 26.698 232.92 26.698H230.523V30.2ZM233.141 35.487C233.798 35.487 234.314 35.3227 234.688 34.994C235.062 34.6653 235.249 34.2063 235.249 33.617C235.249 33.039 235.05 32.58 234.654 32.24C234.257 31.8887 233.73 31.713 233.073 31.713H230.523V35.487H233.141ZM240.347 27.633L242.982 34.773L245.719 27.633H247.725L241.979 41.403H239.973L241.877 36.847L238.188 27.633H240.347ZM253.638 31.067C253.638 29.911 253.904 28.874 254.437 27.956C254.981 27.038 255.712 26.324 256.63 25.814C257.559 25.2927 258.573 25.032 259.673 25.032C260.931 25.032 262.047 25.3437 263.022 25.967C264.008 26.579 264.722 27.4517 265.164 28.585H262.835C262.529 27.9957 262.104 27.5537 261.56 27.259C261.016 26.953 260.387 26.8 259.673 26.8C258.891 26.8 258.194 26.9757 257.582 27.327C256.97 27.6783 256.488 28.177 256.137 28.823C255.797 29.469 255.627 30.217 255.627 31.067C255.627 31.917 255.797 32.6707 256.137 33.328C256.488 33.974 256.97 34.4727 257.582 34.824C258.194 35.1753 258.891 35.351 259.673 35.351C260.387 35.351 261.016 35.2037 261.56 34.909C262.104 34.603 262.529 34.1553 262.835 33.566H265.164C264.722 34.6993 264.008 35.572 263.022 36.184C262.047 36.796 260.931 37.102 259.673 37.102C258.562 37.102 257.548 36.847 256.63 36.337C255.712 35.8157 254.981 35.096 254.437 34.178C253.904 33.26 253.638 32.223 253.638 31.067ZM266.786 32.274C266.786 31.3333 266.979 30.5003 267.364 29.775C267.761 29.0497 268.294 28.4887 268.962 28.092C269.642 27.684 270.39 27.48 271.206 27.48C271.943 27.48 272.583 27.6273 273.127 27.922C273.683 28.2053 274.125 28.5623 274.453 28.993V27.633H276.408V37H274.453V35.606C274.125 36.048 273.677 36.4163 273.11 36.711C272.544 37.0057 271.898 37.153 271.172 37.153C270.368 37.153 269.631 36.949 268.962 36.541C268.294 36.1217 267.761 35.5437 267.364 34.807C266.979 34.059 266.786 33.2147 266.786 32.274ZM274.453 32.308C274.453 31.662 274.317 31.101 274.045 30.625C273.785 30.149 273.439 29.7863 273.008 29.537C272.578 29.2877 272.113 29.163 271.614 29.163C271.116 29.163 270.651 29.2877 270.22 29.537C269.79 29.775 269.438 30.132 269.166 30.608C268.906 31.0727 268.775 31.628 268.775 32.274C268.775 32.92 268.906 33.4867 269.166 33.974C269.438 34.4613 269.79 34.8353 270.22 35.096C270.662 35.3453 271.127 35.47 271.614 35.47C272.113 35.47 272.578 35.3453 273.008 35.096C273.439 34.8467 273.785 34.484 274.045 34.008C274.317 33.5207 274.453 32.954 274.453 32.308ZM290.293 27.48C291.029 27.48 291.687 27.633 292.265 27.939C292.854 28.245 293.313 28.6983 293.642 29.299C293.982 29.8997 294.152 30.625 294.152 31.475V37H292.231V31.764C292.231 30.9253 292.021 30.285 291.602 29.843C291.182 29.3897 290.61 29.163 289.885 29.163C289.159 29.163 288.581 29.3897 288.151 29.843C287.731 30.285 287.522 30.9253 287.522 31.764V37H285.601V31.764C285.601 30.9253 285.391 30.285 284.972 29.843C284.552 29.3897 283.98 29.163 283.255 29.163C282.529 29.163 281.951 29.3897 281.521 29.843C281.101 30.285 280.892 30.9253 280.892 31.764V37H278.954V27.633H280.892V28.704C281.209 28.3187 281.611 28.0183 282.099 27.803C282.586 27.5877 283.107 27.48 283.663 27.48C284.411 27.48 285.079 27.6387 285.669 27.956C286.258 28.2733 286.711 28.7323 287.029 29.333C287.312 28.7663 287.754 28.3187 288.355 27.99C288.955 27.65 289.601 27.48 290.293 27.48ZM298.556 29.01C298.884 28.5793 299.332 28.2167 299.899 27.922C300.465 27.6273 301.106 27.48 301.82 27.48C302.636 27.48 303.378 27.684 304.047 28.092C304.727 28.4887 305.259 29.0497 305.645 29.775C306.03 30.5003 306.223 31.3333 306.223 32.274C306.223 33.2147 306.03 34.059 305.645 34.807C305.259 35.5437 304.727 36.1217 304.047 36.541C303.378 36.949 302.636 37.153 301.82 37.153C301.106 37.153 300.471 37.0113 299.916 36.728C299.36 36.4333 298.907 36.0707 298.556 35.64V41.454H296.618V27.633H298.556V29.01ZM304.251 32.274C304.251 31.628 304.115 31.0727 303.843 30.608C303.582 30.132 303.231 29.775 302.789 29.537C302.358 29.2877 301.893 29.163 301.395 29.163C300.907 29.163 300.443 29.2877 300.001 29.537C299.57 29.7863 299.219 30.149 298.947 30.625C298.686 31.101 298.556 31.662 298.556 32.308C298.556 32.954 298.686 33.5207 298.947 34.008C299.219 34.484 299.57 34.8467 300.001 35.096C300.443 35.3453 300.907 35.47 301.395 35.47C301.893 35.47 302.358 35.3453 302.789 35.096C303.231 34.8353 303.582 34.4613 303.843 33.974C304.115 33.4867 304.251 32.92 304.251 32.274ZM307.493 32.274C307.493 31.3333 307.686 30.5003 308.071 29.775C308.468 29.0497 309.001 28.4887 309.669 28.092C310.349 27.684 311.097 27.48 311.913 27.48C312.65 27.48 313.29 27.6273 313.834 27.922C314.39 28.2053 314.832 28.5623 315.16 28.993V27.633H317.115V37H315.16V35.606C314.832 36.048 314.384 36.4163 313.817 36.711C313.251 37.0057 312.605 37.153 311.879 37.153C311.075 37.153 310.338 36.949 309.669 36.541C309.001 36.1217 308.468 35.5437 308.071 34.807C307.686 34.059 307.493 33.2147 307.493 32.274ZM315.16 32.308C315.16 31.662 315.024 31.101 314.752 30.625C314.492 30.149 314.146 29.7863 313.715 29.537C313.285 29.2877 312.82 29.163 312.321 29.163C311.823 29.163 311.358 29.2877 310.927 29.537C310.497 29.775 310.145 30.132 309.873 30.608C309.613 31.0727 309.482 31.628 309.482 32.274C309.482 32.92 309.613 33.4867 309.873 33.974C310.145 34.4613 310.497 34.8353 310.927 35.096C311.369 35.3453 311.834 35.47 312.321 35.47C312.82 35.47 313.285 35.3453 313.715 35.096C314.146 34.8467 314.492 34.484 314.752 34.008C315.024 33.5207 315.16 32.954 315.16 32.308ZM320.647 26.392C320.295 26.392 320.001 26.273 319.763 26.035C319.525 25.797 319.406 25.5023 319.406 25.151C319.406 24.7997 319.525 24.505 319.763 24.267C320.001 24.029 320.295 23.91 320.647 23.91C320.987 23.91 321.276 24.029 321.514 24.267C321.752 24.505 321.871 24.7997 321.871 25.151C321.871 25.5023 321.752 25.797 321.514 26.035C321.276 26.273 320.987 26.392 320.647 26.392ZM321.599 27.633V37H319.661V27.633H321.599ZM327.917 27.48C328.642 27.48 329.283 27.6273 329.838 27.922C330.405 28.2053 330.847 28.5623 331.164 28.993V27.633H333.119V37.153C333.119 38.0143 332.938 38.7793 332.575 39.448C332.212 40.128 331.685 40.6607 330.994 41.046C330.314 41.4313 329.498 41.624 328.546 41.624C327.277 41.624 326.223 41.3237 325.384 40.723C324.545 40.1337 324.069 39.329 323.956 38.309H325.877C326.024 38.7963 326.336 39.1873 326.812 39.482C327.299 39.788 327.877 39.941 328.546 39.941C329.328 39.941 329.957 39.703 330.433 39.227C330.92 38.751 331.164 38.0597 331.164 37.153V35.589C330.835 36.031 330.388 36.405 329.821 36.711C329.266 37.0057 328.631 37.153 327.917 37.153C327.101 37.153 326.353 36.949 325.673 36.541C325.004 36.1217 324.472 35.5437 324.075 34.807C323.69 34.059 323.497 33.2147 323.497 32.274C323.497 31.3333 323.69 30.5003 324.075 29.775C324.472 29.0497 325.004 28.4887 325.673 28.092C326.353 27.684 327.101 27.48 327.917 27.48ZM331.164 32.308C331.164 31.662 331.028 31.101 330.756 30.625C330.495 30.149 330.15 29.7863 329.719 29.537C329.288 29.2877 328.824 29.163 328.325 29.163C327.826 29.163 327.362 29.2877 326.931 29.537C326.5 29.775 326.149 30.132 325.877 30.608C325.616 31.0727 325.486 31.628 325.486 32.274C325.486 32.92 325.616 33.4867 325.877 33.974C326.149 34.4613 326.5 34.8353 326.931 35.096C327.373 35.3453 327.838 35.47 328.325 35.47C328.824 35.47 329.288 35.3453 329.719 35.096C330.15 34.8467 330.495 34.484 330.756 34.008C331.028 33.5207 331.164 32.954 331.164 32.308ZM340.391 27.48C341.127 27.48 341.785 27.633 342.363 27.939C342.952 28.245 343.411 28.6983 343.74 29.299C344.068 29.8997 344.233 30.625 344.233 31.475V37H342.312V31.764C342.312 30.9253 342.102 30.285 341.683 29.843C341.263 29.3897 340.691 29.163 339.966 29.163C339.24 29.163 338.662 29.3897 338.232 29.843C337.812 30.285 337.603 30.9253 337.603 31.764V37H335.665V27.633H337.603V28.704C337.92 28.3187 338.322 28.0183 338.81 27.803C339.308 27.5877 339.835 27.48 340.391 27.48Z" fill="#8D99AE"/>
<path d="M79.86 122.575V123.91H77.085V133H75.375V123.91H72.585V122.575H79.86ZM89.1668 128.635C89.1668 128.925 89.1468 129.195 89.1068 129.445H82.7768C82.8268 130.135 83.0718 130.685 83.5118 131.095C83.9518 131.495 84.4968 131.695 85.1468 131.695C86.0668 131.695 86.7168 131.31 87.0968 130.54H88.9418C88.6918 131.3 88.2368 131.925 87.5768 132.415C86.9268 132.895 86.1168 133.135 85.1468 133.135C84.3568 133.135 83.6468 132.96 83.0168 132.61C82.3968 132.25 81.9068 131.75 81.5468 131.11C81.1968 130.46 81.0218 129.71 81.0218 128.86C81.0218 128.01 81.1918 127.265 81.5318 126.625C81.8818 125.975 82.3668 125.475 82.9868 125.125C83.6168 124.775 84.3368 124.6 85.1468 124.6C85.9268 124.6 86.6218 124.77 87.2318 125.11C87.8418 125.45 88.3168 125.925 88.6568 126.535C88.9968 127.145 89.1668 127.845 89.1668 128.635ZM87.3818 128.215C87.3718 127.545 87.1468 127.015 86.7068 126.625C86.2768 126.235 85.7318 126.04 85.0718 126.04C84.4718 126.04 83.9568 126.235 83.5268 126.625C83.1068 127.015 82.8618 127.545 82.7918 128.215H87.3818ZM93.8196 133.135C93.1796 133.135 92.6046 133.02 92.0946 132.79C91.5846 132.55 91.1796 132.23 90.8796 131.83C90.5796 131.42 90.4196 130.965 90.3996 130.465H92.1696C92.1996 130.845 92.3646 131.16 92.6646 131.41C92.9746 131.66 93.3596 131.785 93.8196 131.785C94.2996 131.785 94.6696 131.69 94.9296 131.5C95.1996 131.3 95.3346 131.035 95.3346 130.705C95.3346 130.405 95.1846 130.175 94.8846 130.015C94.5846 129.855 94.1196 129.695 93.4896 129.535C92.8796 129.365 92.3796 129.205 91.9896 129.055C91.6096 128.895 91.2796 128.655 90.9996 128.335C90.7196 128.005 90.5796 127.58 90.5796 127.06C90.5796 126.61 90.7046 126.2 90.9546 125.83C91.2046 125.45 91.5646 125.15 92.0346 124.93C92.5146 124.71 93.0746 124.6 93.7146 124.6C94.6546 124.6 95.4096 124.84 95.9796 125.32C96.5596 125.79 96.8696 126.435 96.9096 127.255H95.1996C95.1696 126.855 95.0196 126.54 94.7496 126.31C94.4796 126.07 94.1146 125.95 93.6546 125.95C93.2046 125.95 92.8596 126.045 92.6196 126.235C92.3796 126.415 92.2596 126.66 92.2596 126.97C92.2596 127.19 92.3396 127.375 92.4996 127.525C92.6596 127.675 92.8596 127.795 93.0996 127.885C93.3396 127.965 93.6796 128.065 94.1196 128.185C94.7196 128.345 95.2096 128.505 95.5896 128.665C95.9696 128.825 96.2946 129.07 96.5646 129.4C96.8346 129.72 96.9696 130.14 96.9696 130.66C96.9696 131.13 96.8446 131.555 96.5946 131.935C96.3446 132.305 95.9796 132.6 95.4996 132.82C95.0296 133.03 94.4696 133.135 93.8196 133.135ZM100.857 126.13V130.705C100.857 131.015 100.927 131.24 101.067 131.38C101.217 131.51 101.467 131.575 101.817 131.575H102.867V133H101.517C100.747 133 100.157 132.82 99.7473 132.46C99.3373 132.1 99.1323 131.515 99.1323 130.705V126.13H98.1573V124.735H99.1323V122.68H100.857V124.735H102.867V126.13H100.857ZM108.37 127.765C108.37 126.745 108.605 125.83 109.075 125.02C109.555 124.21 110.2 123.58 111.01 123.13C111.83 122.67 112.725 122.44 113.695 122.44C114.805 122.44 115.79 122.715 116.65 123.265C117.52 123.805 118.15 124.575 118.54 125.575H116.485C116.215 125.055 115.84 124.665 115.36 124.405C114.88 124.135 114.325 124 113.695 124C113.005 124 112.39 124.155 111.85 124.465C111.31 124.775 110.885 125.215 110.575 125.785C110.275 126.355 110.125 127.015 110.125 127.765C110.125 128.515 110.275 129.18 110.575 129.76C110.885 130.33 111.31 130.77 111.85 131.08C112.39 131.39 113.005 131.545 113.695 131.545C114.325 131.545 114.88 131.415 115.36 131.155C115.84 130.885 116.215 130.49 116.485 129.97H118.54C118.15 130.97 117.52 131.74 116.65 132.28C115.79 132.82 114.805 133.09 113.695 133.09C112.715 133.09 111.82 132.865 111.01 132.415C110.2 131.955 109.555 131.32 109.075 130.51C108.605 129.7 108.37 128.785 108.37 127.765ZM119.972 128.83C119.972 128 120.142 127.265 120.482 126.625C120.832 125.985 121.302 125.49 121.892 125.14C122.492 124.78 123.152 124.6 123.872 124.6C124.522 124.6 125.087 124.73 125.567 124.99C126.057 125.24 126.447 125.555 126.737 125.935V124.735H128.462V133H126.737V131.77C126.447 132.16 126.052 132.485 125.552 132.745C125.052 133.005 124.482 133.135 123.842 133.135C123.132 133.135 122.482 132.955 121.892 132.595C121.302 132.225 120.832 131.715 120.482 131.065C120.142 130.405 119.972 129.66 119.972 128.83ZM126.737 128.86C126.737 128.29 126.617 127.795 126.377 127.375C126.147 126.955 125.842 126.635 125.462 126.415C125.082 126.195 124.672 126.085 124.232 126.085C123.792 126.085 123.382 126.195 123.002 126.415C122.622 126.625 122.312 126.94 122.072 127.36C121.842 127.77 121.727 128.26 121.727 128.83C121.727 129.4 121.842 129.9 122.072 130.33C122.312 130.76 122.622 131.09 123.002 131.32C123.392 131.54 123.802 131.65 124.232 131.65C124.672 131.65 125.082 131.54 125.462 131.32C125.842 131.1 126.147 130.78 126.377 130.36C126.617 129.93 126.737 129.43 126.737 128.86ZM140.713 124.6C141.363 124.6 141.943 124.735 142.453 125.005C142.973 125.275 143.378 125.675 143.668 126.205C143.968 126.735 144.118 127.375 144.118 128.125V133H142.423V128.38C142.423 127.64 142.238 127.075 141.868 126.685C141.498 126.285 140.993 126.085 140.353 126.085C139.713 126.085 139.203 126.285 138.823 126.685C138.453 127.075 138.268 127.64 138.268 128.38V133H136.573V128.38C136.573 127.64 136.388 127.075 136.018 126.685C135.648 126.285 135.143 126.085 134.503 126.085C133.863 126.085 133.353 126.285 132.973 126.685C132.603 127.075 132.418 127.64 132.418 128.38V133H130.708V124.735H132.418V125.68C132.698 125.34 133.053 125.075 133.483 124.885C133.913 124.695 134.373 124.6 134.863 124.6C135.523 124.6 136.113 124.74 136.633 125.02C137.153 125.3 137.553 125.705 137.833 126.235C138.083 125.735 138.473 125.34 139.003 125.05C139.533 124.75 140.103 124.6 140.713 124.6ZM148.004 125.95C148.294 125.57 148.689 125.25 149.189 124.99C149.689 124.73 150.254 124.6 150.884 124.6C151.604 124.6 152.259 124.78 152.849 125.14C153.449 125.49 153.919 125.985 154.259 126.625C154.599 127.265 154.769 128 154.769 128.83C154.769 129.66 154.599 130.405 154.259 131.065C153.919 131.715 153.449 132.225 152.849 132.595C152.259 132.955 151.604 133.135 150.884 133.135C150.254 133.135 149.694 133.01 149.204 132.76C148.714 132.5 148.314 132.18 148.004 131.8V136.93H146.294V124.735H148.004V125.95ZM153.029 128.83C153.029 128.26 152.909 127.77 152.669 127.36C152.439 126.94 152.129 126.625 151.739 126.415C151.359 126.195 150.949 126.085 150.509 126.085C150.079 126.085 149.669 126.195 149.279 126.415C148.899 126.635 148.589 126.955 148.349 127.375C148.119 127.795 148.004 128.29 148.004 128.86C148.004 129.43 148.119 129.93 148.349 130.36C148.589 130.78 148.899 131.1 149.279 131.32C149.669 131.54 150.079 131.65 150.509 131.65C150.949 131.65 151.359 131.54 151.739 131.32C152.129 131.09 152.439 130.76 152.669 130.33C152.909 129.9 153.029 129.4 153.029 128.83ZM155.89 128.83C155.89 128 156.06 127.265 156.4 126.625C156.75 125.985 157.22 125.49 157.81 125.14C158.41 124.78 159.07 124.6 159.79 124.6C160.44 124.6 161.005 124.73 161.485 124.99C161.975 125.24 162.365 125.555 162.655 125.935V124.735H164.38V133H162.655V131.77C162.365 132.16 161.97 132.485 161.47 132.745C160.97 133.005 160.4 133.135 159.76 133.135C159.05 133.135 158.4 132.955 157.81 132.595C157.22 132.225 156.75 131.715 156.4 131.065C156.06 130.405 155.89 129.66 155.89 128.83ZM162.655 128.86C162.655 128.29 162.535 127.795 162.295 127.375C162.065 126.955 161.76 126.635 161.38 126.415C161 126.195 160.59 126.085 160.15 126.085C159.71 126.085 159.3 126.195 158.92 126.415C158.54 126.625 158.23 126.94 157.99 127.36C157.76 127.77 157.645 128.26 157.645 128.83C157.645 129.4 157.76 129.9 157.99 130.33C158.23 130.76 158.54 131.09 158.92 131.32C159.31 131.54 159.72 131.65 160.15 131.65C160.59 131.65 161 131.54 161.38 131.32C161.76 131.1 162.065 130.78 162.295 130.36C162.535 129.93 162.655 129.43 162.655 128.86ZM167.496 123.64C167.186 123.64 166.926 123.535 166.716 123.325C166.506 123.115 166.401 122.855 166.401 122.545C166.401 122.235 166.506 121.975 166.716 121.765C166.926 121.555 167.186 121.45 167.496 121.45C167.796 121.45 168.051 121.555 168.261 121.765C168.471 121.975 168.576 122.235 168.576 122.545C168.576 122.855 168.471 123.115 168.261 123.325C168.051 123.535 167.796 123.64 167.496 123.64ZM168.336 124.735V133H166.626V124.735H168.336ZM173.911 124.6C174.551 124.6 175.116 124.73 175.606 124.99C176.106 125.24 176.496 125.555 176.776 125.935V124.735H178.501V133.135C178.501 133.895 178.341 134.57 178.021 135.16C177.701 135.76 177.236 136.23 176.626 136.57C176.026 136.91 175.306 137.08 174.466 137.08C173.346 137.08 172.416 136.815 171.676 136.285C170.936 135.765 170.516 135.055 170.416 134.155H172.111C172.241 134.585 172.516 134.93 172.936 135.19C173.366 135.46 173.876 135.595 174.466 135.595C175.156 135.595 175.711 135.385 176.131 134.965C176.561 134.545 176.776 133.935 176.776 133.135V131.755C176.486 132.145 176.091 132.475 175.591 132.745C175.101 133.005 174.541 133.135 173.911 133.135C173.191 133.135 172.531 132.955 171.931 132.595C171.341 132.225 170.871 131.715 170.521 131.065C170.181 130.405 170.011 129.66 170.011 128.83C170.011 128 170.181 127.265 170.521 126.625C170.871 125.985 171.341 125.49 171.931 125.14C172.531 124.78 173.191 124.6 173.911 124.6ZM176.776 128.86C176.776 128.29 176.656 127.795 176.416 127.375C176.186 126.955 175.881 126.635 175.501 126.415C175.121 126.195 174.711 126.085 174.271 126.085C173.831 126.085 173.421 126.195 173.041 126.415C172.661 126.625 172.351 126.94 172.111 127.36C171.881 127.77 171.766 128.26 171.766 128.83C171.766 129.4 171.881 129.9 172.111 130.33C172.351 130.76 172.661 131.09 173.041 131.32C173.431 131.54 173.841 131.65 174.271 131.65C174.711 131.65 175.121 131.54 175.501 131.32C175.881 131.1 176.186 130.78 176.416 130.36C176.656 129.93 176.776 129.43 176.776 128.86ZM184.917 124.6C185.567 124.6 186.147 124.735 186.657 125.005C187.177 125.275 187.582 125.675 187.872 126.205C188.162 126.735 188.307 127.375 188.307 128.125V133H186.612V128.38C186.612 127.64 186.427 127.075 186.057 126.685C185.687 126.285 185.182 126.085 184.542 126.085C183.902 126.085 183.392 126.285 183.012 126.685C182.642 127.075 182.457 127.64 182.457 128.38V133H180.747V124.735H182.457V125.68C182.737 125.34 183.092 125.075 183.522 124.885C183.962 124.695 184.427 124.6 184.917 124.6Z" fill="#404B52"/>
<rect x="34" y="116" width="22" height="22" rx="5" fill="#EBEBEB"/>
<path d="M80.85 158.575L77.4 165.22V169H75.69V165.22L72.225 158.575H74.13L76.53 163.66L78.93 158.575H80.85ZM85.792 169.135C85.012 169.135 84.307 168.96 83.677 168.61C83.047 168.25 82.552 167.75 82.192 167.11C81.832 166.46 81.652 165.71 81.652 164.86C81.652 164.02 81.837 163.275 82.207 162.625C82.577 161.975 83.082 161.475 83.722 161.125C84.362 160.775 85.077 160.6 85.867 160.6C86.657 160.6 87.372 160.775 88.012 161.125C88.652 161.475 89.157 161.975 89.527 162.625C89.897 163.275 90.082 164.02 90.082 164.86C90.082 165.7 89.892 166.445 89.512 167.095C89.132 167.745 88.612 168.25 87.952 168.61C87.302 168.96 86.582 169.135 85.792 169.135ZM85.792 167.695C86.232 167.695 86.642 167.585 87.022 167.365C87.412 167.145 87.727 166.825 87.967 166.405C88.207 165.975 88.327 165.46 88.327 164.86C88.327 164.26 88.212 163.75 87.982 163.33C87.752 162.9 87.447 162.58 87.067 162.37C86.687 162.15 86.277 162.04 85.837 162.04C85.397 162.04 84.992 162.15 84.622 162.37C84.252 162.58 83.952 162.9 83.722 163.33C83.502 163.75 83.392 164.26 83.392 164.86C83.392 165.46 83.497 165.975 83.707 166.405C83.927 166.835 84.217 167.16 84.577 167.38C84.947 167.59 85.352 167.695 85.792 167.695ZM99.2575 160.735V169H97.5475V168.025C97.2775 168.365 96.9225 168.635 96.4825 168.835C96.0525 169.025 95.5925 169.12 95.1025 169.12C94.4525 169.12 93.8675 168.985 93.3475 168.715C92.8375 168.445 92.4325 168.045 92.1325 167.515C91.8425 166.985 91.6975 166.345 91.6975 165.595V160.735H93.3925V165.34C93.3925 166.08 93.5775 166.65 93.9475 167.05C94.3175 167.44 94.8225 167.635 95.4625 167.635C96.1025 167.635 96.6075 167.44 96.9775 167.05C97.3575 166.65 97.5475 166.08 97.5475 165.34V160.735H99.2575ZM103.224 162.175C103.474 161.675 103.804 161.29 104.214 161.02C104.634 160.74 105.129 160.6 105.699 160.6V162.37H105.264C104.594 162.37 104.084 162.54 103.734 162.88C103.394 163.22 103.224 163.81 103.224 164.65V169H101.514V160.735H103.224V162.175ZM111.198 163.765C111.198 162.745 111.433 161.83 111.903 161.02C112.383 160.21 113.028 159.58 113.838 159.13C114.658 158.67 115.553 158.44 116.523 158.44C117.633 158.44 118.618 158.715 119.478 159.265C120.348 159.805 120.978 160.575 121.368 161.575H119.313C119.043 161.055 118.668 160.665 118.188 160.405C117.708 160.135 117.153 160 116.523 160C115.833 160 115.218 160.155 114.678 160.465C114.138 160.775 113.713 161.215 113.403 161.785C113.103 162.355 112.953 163.015 112.953 163.765C112.953 164.515 113.103 165.18 113.403 165.76C113.713 166.33 114.138 166.77 114.678 167.08C115.218 167.39 115.833 167.545 116.523 167.545C117.153 167.545 117.708 167.415 118.188 167.155C118.668 166.885 119.043 166.49 119.313 165.97H121.368C120.978 166.97 120.348 167.74 119.478 168.28C118.618 168.82 117.633 169.09 116.523 169.09C115.543 169.09 114.648 168.865 113.838 168.415C113.028 167.955 112.383 167.32 111.903 166.51C111.433 165.7 111.198 164.785 111.198 163.765ZM122.799 164.83C122.799 164 122.969 163.265 123.309 162.625C123.659 161.985 124.129 161.49 124.719 161.14C125.319 160.78 125.979 160.6 126.699 160.6C127.349 160.6 127.914 160.73 128.394 160.99C128.884 161.24 129.274 161.555 129.564 161.935V160.735H131.289V169H129.564V167.77C129.274 168.16 128.879 168.485 128.379 168.745C127.879 169.005 127.309 169.135 126.669 169.135C125.959 169.135 125.309 168.955 124.719 168.595C124.129 168.225 123.659 167.715 123.309 167.065C122.969 166.405 122.799 165.66 122.799 164.83ZM129.564 164.86C129.564 164.29 129.444 163.795 129.204 163.375C128.974 162.955 128.669 162.635 128.289 162.415C127.909 162.195 127.499 162.085 127.059 162.085C126.619 162.085 126.209 162.195 125.829 162.415C125.449 162.625 125.139 162.94 124.899 163.36C124.669 163.77 124.554 164.26 124.554 164.83C124.554 165.4 124.669 165.9 124.899 166.33C125.139 166.76 125.449 167.09 125.829 167.32C126.219 167.54 126.629 167.65 127.059 167.65C127.499 167.65 127.909 167.54 128.289 167.32C128.669 167.1 128.974 166.78 129.204 166.36C129.444 165.93 129.564 165.43 129.564 164.86ZM143.54 160.6C144.19 160.6 144.77 160.735 145.28 161.005C145.8 161.275 146.205 161.675 146.495 162.205C146.795 162.735 146.945 163.375 146.945 164.125V169H145.25V164.38C145.25 163.64 145.065 163.075 144.695 162.685C144.325 162.285 143.82 162.085 143.18 162.085C142.54 162.085 142.03 162.285 141.65 162.685C141.28 163.075 141.095 163.64 141.095 164.38V169H139.4V164.38C139.4 163.64 139.215 163.075 138.845 162.685C138.475 162.285 137.97 162.085 137.33 162.085C136.69 162.085 136.18 162.285 135.8 162.685C135.43 163.075 135.245 163.64 135.245 164.38V169H133.535V160.735H135.245V161.68C135.525 161.34 135.88 161.075 136.31 160.885C136.74 160.695 137.2 160.6 137.69 160.6C138.35 160.6 138.94 160.74 139.46 161.02C139.98 161.3 140.38 161.705 140.66 162.235C140.91 161.735 141.3 161.34 141.83 161.05C142.36 160.75 142.93 160.6 143.54 160.6ZM150.831 161.95C151.121 161.57 151.516 161.25 152.016 160.99C152.516 160.73 153.081 160.6 153.711 160.6C154.431 160.6 155.086 160.78 155.676 161.14C156.276 161.49 156.746 161.985 157.086 162.625C157.426 163.265 157.596 164 157.596 164.83C157.596 165.66 157.426 166.405 157.086 167.065C156.746 167.715 156.276 168.225 155.676 168.595C155.086 168.955 154.431 169.135 153.711 169.135C153.081 169.135 152.521 169.01 152.031 168.76C151.541 168.5 151.141 168.18 150.831 167.8V172.93H149.121V160.735H150.831V161.95ZM155.856 164.83C155.856 164.26 155.736 163.77 155.496 163.36C155.266 162.94 154.956 162.625 154.566 162.415C154.186 162.195 153.776 162.085 153.336 162.085C152.906 162.085 152.496 162.195 152.106 162.415C151.726 162.635 151.416 162.955 151.176 163.375C150.946 163.795 150.831 164.29 150.831 164.86C150.831 165.43 150.946 165.93 151.176 166.36C151.416 166.78 151.726 167.1 152.106 167.32C152.496 167.54 152.906 167.65 153.336 167.65C153.776 167.65 154.186 167.54 154.566 167.32C154.956 167.09 155.266 166.76 155.496 166.33C155.736 165.9 155.856 165.4 155.856 164.83ZM158.717 164.83C158.717 164 158.887 163.265 159.227 162.625C159.577 161.985 160.047 161.49 160.637 161.14C161.237 160.78 161.897 160.6 162.617 160.6C163.267 160.6 163.832 160.73 164.312 160.99C164.802 161.24 165.192 161.555 165.482 161.935V160.735H167.207V169H165.482V167.77C165.192 168.16 164.797 168.485 164.297 168.745C163.797 169.005 163.227 169.135 162.587 169.135C161.877 169.135 161.227 168.955 160.637 168.595C160.047 168.225 159.577 167.715 159.227 167.065C158.887 166.405 158.717 165.66 158.717 164.83ZM165.482 164.86C165.482 164.29 165.362 163.795 165.122 163.375C164.892 162.955 164.587 162.635 164.207 162.415C163.827 162.195 163.417 162.085 162.977 162.085C162.537 162.085 162.127 162.195 161.747 162.415C161.367 162.625 161.057 162.94 160.817 163.36C160.587 163.77 160.472 164.26 160.472 164.83C160.472 165.4 160.587 165.9 160.817 166.33C161.057 166.76 161.367 167.09 161.747 167.32C162.137 167.54 162.547 167.65 162.977 167.65C163.417 167.65 163.827 167.54 164.207 167.32C164.587 167.1 164.892 166.78 165.122 166.36C165.362 165.93 165.482 165.43 165.482 164.86ZM170.323 159.64C170.013 159.64 169.753 159.535 169.543 159.325C169.333 159.115 169.228 158.855 169.228 158.545C169.228 158.235 169.333 157.975 169.543 157.765C169.753 157.555 170.013 157.45 170.323 157.45C170.623 157.45 170.878 157.555 171.088 157.765C171.298 157.975 171.403 158.235 171.403 158.545C171.403 158.855 171.298 159.115 171.088 159.325C170.878 159.535 170.623 159.64 170.323 159.64ZM171.163 160.735V169H169.453V160.735H171.163ZM176.738 160.6C177.378 160.6 177.943 160.73 178.433 160.99C178.933 161.24 179.323 161.555 179.603 161.935V160.735H181.328V169.135C181.328 169.895 181.168 170.57 180.848 171.16C180.528 171.76 180.063 172.23 179.453 172.57C178.853 172.91 178.133 173.08 177.293 173.08C176.173 173.08 175.243 172.815 174.503 172.285C173.763 171.765 173.343 171.055 173.243 170.155H174.938C175.068 170.585 175.343 170.93 175.763 171.19C176.193 171.46 176.703 171.595 177.293 171.595C177.983 171.595 178.538 171.385 178.958 170.965C179.388 170.545 179.603 169.935 179.603 169.135V167.755C179.313 168.145 178.918 168.475 178.418 168.745C177.928 169.005 177.368 169.135 176.738 169.135C176.018 169.135 175.358 168.955 174.758 168.595C174.168 168.225 173.698 167.715 173.348 167.065C173.008 166.405 172.838 165.66 172.838 164.83C172.838 164 173.008 163.265 173.348 162.625C173.698 161.985 174.168 161.49 174.758 161.14C175.358 160.78 176.018 160.6 176.738 160.6ZM179.603 164.86C179.603 164.29 179.483 163.795 179.243 163.375C179.013 162.955 178.708 162.635 178.328 162.415C177.948 162.195 177.538 162.085 177.098 162.085C176.658 162.085 176.248 162.195 175.868 162.415C175.488 162.625 175.178 162.94 174.938 163.36C174.708 163.77 174.593 164.26 174.593 164.83C174.593 165.4 174.708 165.9 174.938 166.33C175.178 166.76 175.488 167.09 175.868 167.32C176.258 167.54 176.668 167.65 177.098 167.65C177.538 167.65 177.948 167.54 178.328 167.32C178.708 167.1 179.013 166.78 179.243 166.36C179.483 165.93 179.603 165.43 179.603 164.86ZM187.744 160.6C188.394 160.6 188.974 160.735 189.484 161.005C190.004 161.275 190.409 161.675 190.699 162.205C190.989 162.735 191.134 163.375 191.134 164.125V169H189.439V164.38C189.439 163.64 189.254 163.075 188.884 162.685C188.514 162.285 188.009 162.085 187.369 162.085C186.729 162.085 186.219 162.285 185.839 162.685C185.469 163.075 185.284 163.64 185.284 164.38V169H183.574V160.735H185.284V161.68C185.564 161.34 185.919 161.075 186.349 160.885C186.789 160.695 187.254 160.6 187.744 160.6ZM206.378 169H204.668L199.523 161.215V169H197.813V158.56H199.523L204.668 166.33V158.56H206.378V169ZM208.053 164.83C208.053 164 208.223 163.265 208.563 162.625C208.913 161.985 209.383 161.49 209.973 161.14C210.573 160.78 211.233 160.6 211.953 160.6C212.603 160.6 213.168 160.73 213.648 160.99C214.138 161.24 214.528 161.555 214.818 161.935V160.735H216.543V169H214.818V167.77C214.528 168.16 214.133 168.485 213.633 168.745C213.133 169.005 212.563 169.135 211.923 169.135C211.213 169.135 210.563 168.955 209.973 168.595C209.383 168.225 208.913 167.715 208.563 167.065C208.223 166.405 208.053 165.66 208.053 164.83ZM214.818 164.86C214.818 164.29 214.698 163.795 214.458 163.375C214.228 162.955 213.923 162.635 213.543 162.415C213.163 162.195 212.753 162.085 212.313 162.085C211.873 162.085 211.463 162.195 211.083 162.415C210.703 162.625 210.393 162.94 210.153 163.36C209.923 163.77 209.808 164.26 209.808 164.83C209.808 165.4 209.923 165.9 210.153 166.33C210.393 166.76 210.703 167.09 211.083 167.32C211.473 167.54 211.883 167.65 212.313 167.65C212.753 167.65 213.163 167.54 213.543 167.32C213.923 167.1 214.228 166.78 214.458 166.36C214.698 165.93 214.818 165.43 214.818 164.86ZM228.794 160.6C229.444 160.6 230.024 160.735 230.534 161.005C231.054 161.275 231.459 161.675 231.749 162.205C232.049 162.735 232.199 163.375 232.199 164.125V169H230.504V164.38C230.504 163.64 230.319 163.075 229.949 162.685C229.579 162.285 229.074 162.085 228.434 162.085C227.794 162.085 227.284 162.285 226.904 162.685C226.534 163.075 226.349 163.64 226.349 164.38V169H224.654V164.38C224.654 163.64 224.469 163.075 224.099 162.685C223.729 162.285 223.224 162.085 222.584 162.085C221.944 162.085 221.434 162.285 221.054 162.685C220.684 163.075 220.499 163.64 220.499 164.38V169H218.789V160.735H220.499V161.68C220.779 161.34 221.134 161.075 221.564 160.885C221.994 160.695 222.454 160.6 222.944 160.6C223.604 160.6 224.194 160.74 224.714 161.02C225.234 161.3 225.634 161.705 225.914 162.235C226.164 161.735 226.554 161.34 227.084 161.05C227.614 160.75 228.184 160.6 228.794 160.6ZM241.95 164.635C241.95 164.925 241.93 165.195 241.89 165.445H235.56C235.61 166.135 235.855 166.685 236.295 167.095C236.735 167.495 237.28 167.695 237.93 167.695C238.85 167.695 239.5 167.31 239.88 166.54H241.725C241.475 167.3 241.02 167.925 240.36 168.415C239.71 168.895 238.9 169.135 237.93 169.135C237.14 169.135 236.43 168.96 235.8 168.61C235.18 168.25 234.69 167.75 234.33 167.11C233.98 166.46 233.805 165.71 233.805 164.86C233.805 164.01 233.975 163.265 234.315 162.625C234.665 161.975 235.15 161.475 235.77 161.125C236.4 160.775 237.12 160.6 237.93 160.6C238.71 160.6 239.405 160.77 240.015 161.11C240.625 161.45 241.1 161.925 241.44 162.535C241.78 163.145 241.95 163.845 241.95 164.635ZM240.165 164.215C240.155 163.545 239.93 163.015 239.49 162.625C239.06 162.235 238.515 162.04 237.855 162.04C237.255 162.04 236.74 162.235 236.31 162.625C235.89 163.015 235.645 163.545 235.575 164.215H240.165ZM247.68 159.91V158.35H250.8V169H249.075V159.91H247.68Z" fill="#D90429"/>
<rect x="34" y="152" width="22" height="22" rx="5" fill="#D90429"/>
<path d="M40 162.267L43.1429 166L51 159" stroke="white" stroke-width="2"/>
<path d="M72.555 199.765C72.555 198.745 72.79 197.83 73.26 197.02C73.74 196.21 74.385 195.58 75.195 195.13C76.015 194.67 76.91 194.44 77.88 194.44C78.99 194.44 79.975 194.715 80.835 195.265C81.705 195.805 82.335 196.575 82.725 197.575H80.67C80.4 197.055 80.025 196.665 79.545 196.405C79.065 196.135 78.51 196 77.88 196C77.19 196 76.575 196.155 76.035 196.465C75.495 196.775 75.07 197.215 74.76 197.785C74.46 198.355 74.31 199.015 74.31 199.765C74.31 200.515 74.46 201.18 74.76 201.76C75.07 202.33 75.495 202.77 76.035 203.08C76.575 203.39 77.19 203.545 77.88 203.545C78.51 203.545 79.065 203.415 79.545 203.155C80.025 202.885 80.4 202.49 80.67 201.97H82.725C82.335 202.97 81.705 203.74 80.835 204.28C79.975 204.82 78.99 205.09 77.88 205.09C76.9 205.09 76.005 204.865 75.195 204.415C74.385 203.955 73.74 203.32 73.26 202.51C72.79 201.7 72.555 200.785 72.555 199.765ZM84.1566 200.83C84.1566 200 84.3266 199.265 84.6666 198.625C85.0166 197.985 85.4866 197.49 86.0766 197.14C86.6766 196.78 87.3366 196.6 88.0566 196.6C88.7066 196.6 89.2716 196.73 89.7516 196.99C90.2416 197.24 90.6316 197.555 90.9216 197.935V196.735H92.6466V205H90.9216V203.77C90.6316 204.16 90.2366 204.485 89.7366 204.745C89.2366 205.005 88.6666 205.135 88.0266 205.135C87.3166 205.135 86.6666 204.955 86.0766 204.595C85.4866 204.225 85.0166 203.715 84.6666 203.065C84.3266 202.405 84.1566 201.66 84.1566 200.83ZM90.9216 200.86C90.9216 200.29 90.8016 199.795 90.5616 199.375C90.3316 198.955 90.0266 198.635 89.6466 198.415C89.2666 198.195 88.8566 198.085 88.4166 198.085C87.9766 198.085 87.5666 198.195 87.1866 198.415C86.8066 198.625 86.4966 198.94 86.2566 199.36C86.0266 199.77 85.9116 200.26 85.9116 200.83C85.9116 201.4 86.0266 201.9 86.2566 202.33C86.4966 202.76 86.8066 203.09 87.1866 203.32C87.5766 203.54 87.9866 203.65 88.4166 203.65C88.8566 203.65 89.2666 203.54 89.6466 203.32C90.0266 203.1 90.3316 202.78 90.5616 202.36C90.8016 201.93 90.9216 201.43 90.9216 200.86ZM104.898 196.6C105.548 196.6 106.128 196.735 106.638 197.005C107.158 197.275 107.563 197.675 107.853 198.205C108.153 198.735 108.303 199.375 108.303 200.125V205H106.608V200.38C106.608 199.64 106.423 199.075 106.053 198.685C105.683 198.285 105.178 198.085 104.538 198.085C103.898 198.085 103.388 198.285 103.008 198.685C102.638 199.075 102.453 199.64 102.453 200.38V205H100.758V200.38C100.758 199.64 100.573 199.075 100.203 198.685C99.8326 198.285 99.3276 198.085 98.6876 198.085C98.0476 198.085 97.5376 198.285 97.1576 198.685C96.7876 199.075 96.6026 199.64 96.6026 200.38V205H94.8926V196.735H96.6026V197.68C96.8826 197.34 97.2376 197.075 97.6676 196.885C98.0976 196.695 98.5576 196.6 99.0476 196.6C99.7076 196.6 100.298 196.74 100.818 197.02C101.338 197.3 101.738 197.705 102.018 198.235C102.268 197.735 102.658 197.34 103.188 197.05C103.718 196.75 104.288 196.6 104.898 196.6ZM112.189 197.95C112.479 197.57 112.874 197.25 113.374 196.99C113.874 196.73 114.439 196.6 115.069 196.6C115.789 196.6 116.444 196.78 117.034 197.14C117.634 197.49 118.104 197.985 118.444 198.625C118.784 199.265 118.954 200 118.954 200.83C118.954 201.66 118.784 202.405 118.444 203.065C118.104 203.715 117.634 204.225 117.034 204.595C116.444 204.955 115.789 205.135 115.069 205.135C114.439 205.135 113.879 205.01 113.389 204.76C112.899 204.5 112.499 204.18 112.189 203.8V208.93H110.479V196.735H112.189V197.95ZM117.214 200.83C117.214 200.26 117.094 199.77 116.854 199.36C116.624 198.94 116.314 198.625 115.924 198.415C115.544 198.195 115.134 198.085 114.694 198.085C114.264 198.085 113.854 198.195 113.464 198.415C113.084 198.635 112.774 198.955 112.534 199.375C112.304 199.795 112.189 200.29 112.189 200.86C112.189 201.43 112.304 201.93 112.534 202.36C112.774 202.78 113.084 203.1 113.464 203.32C113.854 203.54 114.264 203.65 114.694 203.65C115.134 203.65 115.544 203.54 115.924 203.32C116.314 203.09 116.624 202.76 116.854 202.33C117.094 201.9 117.214 201.4 117.214 200.83ZM120.075 200.83C120.075 200 120.245 199.265 120.585 198.625C120.935 197.985 121.405 197.49 121.995 197.14C122.595 196.78 123.255 196.6 123.975 196.6C124.625 196.6 125.19 196.73 125.67 196.99C126.16 197.24 126.55 197.555 126.84 197.935V196.735H128.565V205H126.84V203.77C126.55 204.16 126.155 204.485 125.655 204.745C125.155 205.005 124.585 205.135 123.945 205.135C123.235 205.135 122.585 204.955 121.995 204.595C121.405 204.225 120.935 203.715 120.585 203.065C120.245 202.405 120.075 201.66 120.075 200.83ZM126.84 200.86C126.84 200.29 126.72 199.795 126.48 199.375C126.25 198.955 125.945 198.635 125.565 198.415C125.185 198.195 124.775 198.085 124.335 198.085C123.895 198.085 123.485 198.195 123.105 198.415C122.725 198.625 122.415 198.94 122.175 199.36C121.945 199.77 121.83 200.26 121.83 200.83C121.83 201.4 121.945 201.9 122.175 202.33C122.415 202.76 122.725 203.09 123.105 203.32C123.495 203.54 123.905 203.65 124.335 203.65C124.775 203.65 125.185 203.54 125.565 203.32C125.945 203.1 126.25 202.78 126.48 202.36C126.72 201.93 126.84 201.43 126.84 200.86ZM131.681 195.64C131.371 195.64 131.111 195.535 130.901 195.325C130.691 195.115 130.586 194.855 130.586 194.545C130.586 194.235 130.691 193.975 130.901 193.765C131.111 193.555 131.371 193.45 131.681 193.45C131.981 193.45 132.236 193.555 132.446 193.765C132.656 193.975 132.761 194.235 132.761 194.545C132.761 194.855 132.656 195.115 132.446 195.325C132.236 195.535 131.981 195.64 131.681 195.64ZM132.521 196.735V205H130.811V196.735H132.521ZM138.096 196.6C138.736 196.6 139.301 196.73 139.791 196.99C140.291 197.24 140.681 197.555 140.961 197.935V196.735H142.686V205.135C142.686 205.895 142.526 206.57 142.206 207.16C141.886 207.76 141.421 208.23 140.811 208.57C140.211 208.91 139.491 209.08 138.651 209.08C137.531 209.08 136.601 208.815 135.861 208.285C135.121 207.765 134.701 207.055 134.601 206.155H136.296C136.426 206.585 136.701 206.93 137.121 207.19C137.551 207.46 138.061 207.595 138.651 207.595C139.341 207.595 139.896 207.385 140.316 206.965C140.746 206.545 140.961 205.935 140.961 205.135V203.755C140.671 204.145 140.276 204.475 139.776 204.745C139.286 205.005 138.726 205.135 138.096 205.135C137.376 205.135 136.716 204.955 136.116 204.595C135.526 204.225 135.056 203.715 134.706 203.065C134.366 202.405 134.196 201.66 134.196 200.83C134.196 200 134.366 199.265 134.706 198.625C135.056 197.985 135.526 197.49 136.116 197.14C136.716 196.78 137.376 196.6 138.096 196.6ZM140.961 200.86C140.961 200.29 140.841 199.795 140.601 199.375C140.371 198.955 140.066 198.635 139.686 198.415C139.306 198.195 138.896 198.085 138.456 198.085C138.016 198.085 137.606 198.195 137.226 198.415C136.846 198.625 136.536 198.94 136.296 199.36C136.066 199.77 135.951 200.26 135.951 200.83C135.951 201.4 136.066 201.9 136.296 202.33C136.536 202.76 136.846 203.09 137.226 203.32C137.616 203.54 138.026 203.65 138.456 203.65C138.896 203.65 139.306 203.54 139.686 203.32C140.066 203.1 140.371 202.78 140.601 202.36C140.841 201.93 140.961 201.43 140.961 200.86ZM149.102 196.6C149.752 196.6 150.332 196.735 150.842 197.005C151.362 197.275 151.767 197.675 152.057 198.205C152.347 198.735 152.492 199.375 152.492 200.125V205H150.797V200.38C150.797 199.64 150.612 199.075 150.242 198.685C149.872 198.285 149.367 198.085 148.727 198.085C148.087 198.085 147.577 198.285 147.197 198.685C146.827 199.075 146.642 199.64 146.642 200.38V205H144.932V196.735H146.642V197.68C146.922 197.34 147.277 197.075 147.707 196.885C148.147 196.695 148.612 196.6 149.102 196.6ZM167.735 205H166.025L160.88 197.215V205H159.17V194.56H160.88L166.025 202.33V194.56H167.735V205ZM169.41 200.83C169.41 200 169.58 199.265 169.92 198.625C170.27 197.985 170.74 197.49 171.33 197.14C171.93 196.78 172.59 196.6 173.31 196.6C173.96 196.6 174.525 196.73 175.005 196.99C175.495 197.24 175.885 197.555 176.175 197.935V196.735H177.9V205H176.175V203.77C175.885 204.16 175.49 204.485 174.99 204.745C174.49 205.005 173.92 205.135 173.28 205.135C172.57 205.135 171.92 204.955 171.33 204.595C170.74 204.225 170.27 203.715 169.92 203.065C169.58 202.405 169.41 201.66 169.41 200.83ZM176.175 200.86C176.175 200.29 176.055 199.795 175.815 199.375C175.585 198.955 175.28 198.635 174.9 198.415C174.52 198.195 174.11 198.085 173.67 198.085C173.23 198.085 172.82 198.195 172.44 198.415C172.06 198.625 171.75 198.94 171.51 199.36C171.28 199.77 171.165 200.26 171.165 200.83C171.165 201.4 171.28 201.9 171.51 202.33C171.75 202.76 172.06 203.09 172.44 203.32C172.83 203.54 173.24 203.65 173.67 203.65C174.11 203.65 174.52 203.54 174.9 203.32C175.28 203.1 175.585 202.78 175.815 202.36C176.055 201.93 176.175 201.43 176.175 200.86ZM190.151 196.6C190.801 196.6 191.381 196.735 191.891 197.005C192.411 197.275 192.816 197.675 193.106 198.205C193.406 198.735 193.556 199.375 193.556 200.125V205H191.861V200.38C191.861 199.64 191.676 199.075 191.306 198.685C190.936 198.285 190.431 198.085 189.791 198.085C189.151 198.085 188.641 198.285 188.261 198.685C187.891 199.075 187.706 199.64 187.706 200.38V205H186.011V200.38C186.011 199.64 185.826 199.075 185.456 198.685C185.086 198.285 184.581 198.085 183.941 198.085C183.301 198.085 182.791 198.285 182.411 198.685C182.041 199.075 181.856 199.64 181.856 200.38V205H180.146V196.735H181.856V197.68C182.136 197.34 182.491 197.075 182.921 196.885C183.351 196.695 183.811 196.6 184.301 196.6C184.961 196.6 185.551 196.74 186.071 197.02C186.591 197.3 186.991 197.705 187.271 198.235C187.521 197.735 187.911 197.34 188.441 197.05C188.971 196.75 189.541 196.6 190.151 196.6ZM203.307 200.635C203.307 200.925 203.287 201.195 203.247 201.445H196.917C196.967 202.135 197.212 202.685 197.652 203.095C198.092 203.495 198.637 203.695 199.287 203.695C200.207 203.695 200.857 203.31 201.237 202.54H203.082C202.832 203.3 202.377 203.925 201.717 204.415C201.067 204.895 200.257 205.135 199.287 205.135C198.497 205.135 197.787 204.96 197.157 204.61C196.537 204.25 196.047 203.75 195.687 203.11C195.337 202.46 195.162 201.71 195.162 200.86C195.162 200.01 195.332 199.265 195.672 198.625C196.022 197.975 196.507 197.475 197.127 197.125C197.757 196.775 198.477 196.6 199.287 196.6C200.067 196.6 200.762 196.77 201.372 197.11C201.982 197.45 202.457 197.925 202.797 198.535C203.137 199.145 203.307 199.845 203.307 200.635ZM201.522 200.215C201.512 199.545 201.287 199.015 200.847 198.625C200.417 198.235 199.872 198.04 199.212 198.04C198.612 198.04 198.097 198.235 197.667 198.625C197.247 199.015 197.002 199.545 196.932 200.215H201.522ZM210.237 202.645C211.197 201.825 211.952 201.15 212.502 200.62C213.052 200.09 213.507 199.545 213.867 198.985C214.237 198.415 214.422 197.855 214.422 197.305C214.422 196.735 214.277 196.285 213.987 195.955C213.707 195.625 213.262 195.46 212.652 195.46C212.062 195.46 211.602 195.65 211.272 196.03C210.952 196.4 210.782 196.9 210.762 197.53H209.112C209.142 196.39 209.482 195.52 210.132 194.92C210.792 194.31 211.627 194.005 212.637 194.005C213.367 194.005 213.992 194.14 214.512 194.41C215.032 194.68 215.427 195.06 215.697 195.55C215.977 196.04 216.117 196.6 216.117 197.23C216.117 197.92 215.932 198.59 215.562 199.24C215.202 199.89 214.772 200.475 214.272 200.995C213.772 201.515 213.132 202.12 212.352 202.81L211.662 203.425H216.417V204.85H209.127V203.605L210.237 202.645Z" fill="#404B52"/>
<rect x="34" y="188" width="22" height="22" rx="5" fill="#EBEBEB"/>
<path d="M72.555 235.765C72.555 234.745 72.79 233.83 73.26 233.02C73.74 232.21 74.385 231.58 75.195 231.13C76.015 230.67 76.91 230.44 77.88 230.44C78.99 230.44 79.975 230.715 80.835 231.265C81.705 231.805 82.335 232.575 82.725 233.575H80.67C80.4 233.055 80.025 232.665 79.545 232.405C79.065 232.135 78.51 232 77.88 232C77.19 232 76.575 232.155 76.035 232.465C75.495 232.775 75.07 233.215 74.76 233.785C74.46 234.355 74.31 235.015 74.31 235.765C74.31 236.515 74.46 237.18 74.76 237.76C75.07 238.33 75.495 238.77 76.035 239.08C76.575 239.39 77.19 239.545 77.88 239.545C78.51 239.545 79.065 239.415 79.545 239.155C80.025 238.885 80.4 238.49 80.67 237.97H82.725C82.335 238.97 81.705 239.74 80.835 240.28C79.975 240.82 78.99 241.09 77.88 241.09C76.9 241.09 76.005 240.865 75.195 240.415C74.385 239.955 73.74 239.32 73.26 238.51C72.79 237.7 72.555 236.785 72.555 235.765ZM84.1566 236.83C84.1566 236 84.3266 235.265 84.6666 234.625C85.0166 233.985 85.4866 233.49 86.0766 233.14C86.6766 232.78 87.3366 232.6 88.0566 232.6C88.7066 232.6 89.2716 232.73 89.7516 232.99C90.2416 233.24 90.6316 233.555 90.9216 233.935V232.735H92.6466V241H90.9216V239.77C90.6316 240.16 90.2366 240.485 89.7366 240.745C89.2366 241.005 88.6666 241.135 88.0266 241.135C87.3166 241.135 86.6666 240.955 86.0766 240.595C85.4866 240.225 85.0166 239.715 84.6666 239.065C84.3266 238.405 84.1566 237.66 84.1566 236.83ZM90.9216 236.86C90.9216 236.29 90.8016 235.795 90.5616 235.375C90.3316 234.955 90.0266 234.635 89.6466 234.415C89.2666 234.195 88.8566 234.085 88.4166 234.085C87.9766 234.085 87.5666 234.195 87.1866 234.415C86.8066 234.625 86.4966 234.94 86.2566 235.36C86.0266 235.77 85.9116 236.26 85.9116 236.83C85.9116 237.4 86.0266 237.9 86.2566 238.33C86.4966 238.76 86.8066 239.09 87.1866 239.32C87.5766 239.54 87.9866 239.65 88.4166 239.65C88.8566 239.65 89.2666 239.54 89.6466 239.32C90.0266 239.1 90.3316 238.78 90.5616 238.36C90.8016 237.93 90.9216 237.43 90.9216 236.86ZM104.898 232.6C105.548 232.6 106.128 232.735 106.638 233.005C107.158 233.275 107.563 233.675 107.853 234.205C108.153 234.735 108.303 235.375 108.303 236.125V241H106.608V236.38C106.608 235.64 106.423 235.075 106.053 234.685C105.683 234.285 105.178 234.085 104.538 234.085C103.898 234.085 103.388 234.285 103.008 234.685C102.638 235.075 102.453 235.64 102.453 236.38V241H100.758V236.38C100.758 235.64 100.573 235.075 100.203 234.685C99.8326 234.285 99.3276 234.085 98.6876 234.085C98.0476 234.085 97.5376 234.285 97.1576 234.685C96.7876 235.075 96.6026 235.64 96.6026 236.38V241H94.8926V232.735H96.6026V233.68C96.8826 233.34 97.2376 233.075 97.6676 232.885C98.0976 232.695 98.5576 232.6 99.0476 232.6C99.7076 232.6 100.298 232.74 100.818 233.02C101.338 233.3 101.738 233.705 102.018 234.235C102.268 233.735 102.658 233.34 103.188 233.05C103.718 232.75 104.288 232.6 104.898 232.6ZM112.189 233.95C112.479 233.57 112.874 233.25 113.374 232.99C113.874 232.73 114.439 232.6 115.069 232.6C115.789 232.6 116.444 232.78 117.034 233.14C117.634 233.49 118.104 233.985 118.444 234.625C118.784 235.265 118.954 236 118.954 236.83C118.954 237.66 118.784 238.405 118.444 239.065C118.104 239.715 117.634 240.225 117.034 240.595C116.444 240.955 115.789 241.135 115.069 241.135C114.439 241.135 113.879 241.01 113.389 240.76C112.899 240.5 112.499 240.18 112.189 239.8V244.93H110.479V232.735H112.189V233.95ZM117.214 236.83C117.214 236.26 117.094 235.77 116.854 235.36C116.624 234.94 116.314 234.625 115.924 234.415C115.544 234.195 115.134 234.085 114.694 234.085C114.264 234.085 113.854 234.195 113.464 234.415C113.084 234.635 112.774 234.955 112.534 235.375C112.304 235.795 112.189 236.29 112.189 236.86C112.189 237.43 112.304 237.93 112.534 238.36C112.774 238.78 113.084 239.1 113.464 239.32C113.854 239.54 114.264 239.65 114.694 239.65C115.134 239.65 115.544 239.54 115.924 239.32C116.314 239.09 116.624 238.76 116.854 238.33C117.094 237.9 117.214 237.4 117.214 236.83ZM120.075 236.83C120.075 236 120.245 235.265 120.585 234.625C120.935 233.985 121.405 233.49 121.995 233.14C122.595 232.78 123.255 232.6 123.975 232.6C124.625 232.6 125.19 232.73 125.67 232.99C126.16 233.24 126.55 233.555 126.84 233.935V232.735H128.565V241H126.84V239.77C126.55 240.16 126.155 240.485 125.655 240.745C125.155 241.005 124.585 241.135 123.945 241.135C123.235 241.135 122.585 240.955 121.995 240.595C121.405 240.225 120.935 239.715 120.585 239.065C120.245 238.405 120.075 237.66 120.075 236.83ZM126.84 236.86C126.84 236.29 126.72 235.795 126.48 235.375C126.25 234.955 125.945 234.635 125.565 234.415C125.185 234.195 124.775 234.085 124.335 234.085C123.895 234.085 123.485 234.195 123.105 234.415C122.725 234.625 122.415 234.94 122.175 235.36C121.945 235.77 121.83 236.26 121.83 236.83C121.83 237.4 121.945 237.9 122.175 238.33C122.415 238.76 122.725 239.09 123.105 239.32C123.495 239.54 123.905 239.65 124.335 239.65C124.775 239.65 125.185 239.54 125.565 239.32C125.945 239.1 126.25 238.78 126.48 238.36C126.72 237.93 126.84 237.43 126.84 236.86ZM131.681 231.64C131.371 231.64 131.111 231.535 130.901 231.325C130.691 231.115 130.586 230.855 130.586 230.545C130.586 230.235 130.691 229.975 130.901 229.765C131.111 229.555 131.371 229.45 131.681 229.45C131.981 229.45 132.236 229.555 132.446 229.765C132.656 229.975 132.761 230.235 132.761 230.545C132.761 230.855 132.656 231.115 132.446 231.325C132.236 231.535 131.981 231.64 131.681 231.64ZM132.521 232.735V241H130.811V232.735H132.521ZM138.096 232.6C138.736 232.6 139.301 232.73 139.791 232.99C140.291 233.24 140.681 233.555 140.961 233.935V232.735H142.686V241.135C142.686 241.895 142.526 242.57 142.206 243.16C141.886 243.76 141.421 244.23 140.811 244.57C140.211 244.91 139.491 245.08 138.651 245.08C137.531 245.08 136.601 244.815 135.861 244.285C135.121 243.765 134.701 243.055 134.601 242.155H136.296C136.426 242.585 136.701 242.93 137.121 243.19C137.551 243.46 138.061 243.595 138.651 243.595C139.341 243.595 139.896 243.385 140.316 242.965C140.746 242.545 140.961 241.935 140.961 241.135V239.755C140.671 240.145 140.276 240.475 139.776 240.745C139.286 241.005 138.726 241.135 138.096 241.135C137.376 241.135 136.716 240.955 136.116 240.595C135.526 240.225 135.056 239.715 134.706 239.065C134.366 238.405 134.196 237.66 134.196 236.83C134.196 236 134.366 235.265 134.706 234.625C135.056 233.985 135.526 233.49 136.116 233.14C136.716 232.78 137.376 232.6 138.096 232.6ZM140.961 236.86C140.961 236.29 140.841 235.795 140.601 235.375C140.371 234.955 140.066 234.635 139.686 234.415C139.306 234.195 138.896 234.085 138.456 234.085C138.016 234.085 137.606 234.195 137.226 234.415C136.846 234.625 136.536 234.94 136.296 235.36C136.066 235.77 135.951 236.26 135.951 236.83C135.951 237.4 136.066 237.9 136.296 238.33C136.536 238.76 136.846 239.09 137.226 239.32C137.616 239.54 138.026 239.65 138.456 239.65C138.896 239.65 139.306 239.54 139.686 239.32C140.066 239.1 140.371 238.78 140.601 238.36C140.841 237.93 140.961 237.43 140.961 236.86ZM149.102 232.6C149.752 232.6 150.332 232.735 150.842 233.005C151.362 233.275 151.767 233.675 152.057 234.205C152.347 234.735 152.492 235.375 152.492 236.125V241H150.797V236.38C150.797 235.64 150.612 235.075 150.242 234.685C149.872 234.285 149.367 234.085 148.727 234.085C148.087 234.085 147.577 234.285 147.197 234.685C146.827 235.075 146.642 235.64 146.642 236.38V241H144.932V232.735H146.642V233.68C146.922 233.34 147.277 233.075 147.707 232.885C148.147 232.695 148.612 232.6 149.102 232.6ZM158.915 232.765C158.975 231.835 159.33 231.11 159.98 230.59C160.64 230.07 161.48 229.81 162.5 229.81C163.2 229.81 163.805 229.935 164.315 230.185C164.825 230.435 165.21 230.775 165.47 231.205C165.73 231.635 165.86 232.12 165.86 232.66C165.86 233.28 165.695 233.81 165.365 234.25C165.035 234.69 164.64 234.985 164.18 235.135V235.195C164.77 235.375 165.23 235.705 165.56 236.185C165.89 236.655 166.055 237.26 166.055 238C166.055 238.59 165.92 239.115 165.65 239.575C165.38 240.035 164.98 240.4 164.45 240.67C163.92 240.93 163.285 241.06 162.545 241.06C161.465 241.06 160.575 240.785 159.875 240.235C159.185 239.675 158.815 238.875 158.765 237.835H160.415C160.455 238.365 160.66 238.8 161.03 239.14C161.4 239.47 161.9 239.635 162.53 239.635C163.14 239.635 163.61 239.47 163.94 239.14C164.27 238.8 164.435 238.365 164.435 237.835C164.435 237.135 164.21 236.64 163.76 236.35C163.32 236.05 162.64 235.9 161.72 235.9H161.33V234.49H161.735C162.545 234.48 163.16 234.345 163.58 234.085C164.01 233.825 164.225 233.415 164.225 232.855C164.225 232.375 164.07 231.995 163.76 231.715C163.45 231.425 163.01 231.28 162.44 231.28C161.88 231.28 161.445 231.425 161.135 231.715C160.825 231.995 160.64 232.345 160.58 232.765H158.915Z" fill="#404B52"/>
<rect x="34" y="224" width="22" height="22" rx="5" fill="#EBEBEB"/>
<rect x="32" y="54" width="447" height="46" rx="5" fill="#F2F2F2"/>
<path d="M78.59 71.545V72.61H75.74V82H74.375V72.61H71.51V71.545H78.59ZM80.8252 73.78L83.3752 80.41L85.9402 73.78H87.3502L82.4002 85.87H80.9752L82.6102 81.91L79.2952 73.78H80.8252ZM90.0874 75.295C90.3574 74.825 90.7574 74.435 91.2874 74.125C91.8274 73.805 92.4524 73.645 93.1624 73.645C93.8924 73.645 94.5524 73.82 95.1424 74.17C95.7424 74.52 96.2124 75.015 96.5524 75.655C96.8924 76.285 97.0624 77.02 97.0624 77.86C97.0624 78.69 96.8924 79.43 96.5524 80.08C96.2124 80.73 95.7424 81.235 95.1424 81.595C94.5524 81.955 93.8924 82.135 93.1624 82.135C92.4624 82.135 91.8424 81.98 91.3024 81.67C90.7724 81.35 90.3674 80.955 90.0874 80.485V85.9H88.7224V73.78H90.0874V75.295ZM95.6674 77.86C95.6674 77.24 95.5424 76.7 95.2924 76.24C95.0424 75.78 94.7024 75.43 94.2724 75.19C93.8524 74.95 93.3874 74.83 92.8774 74.83C92.3774 74.83 91.9124 74.955 91.4824 75.205C91.0624 75.445 90.7224 75.8 90.4624 76.27C90.2124 76.73 90.0874 77.265 90.0874 77.875C90.0874 78.495 90.2124 79.04 90.4624 79.51C90.7224 79.97 91.0624 80.325 91.4824 80.575C91.9124 80.815 92.3774 80.935 92.8774 80.935C93.3874 80.935 93.8524 80.815 94.2724 80.575C94.7024 80.325 95.0424 79.97 95.2924 79.51C95.5424 79.04 95.6674 78.49 95.6674 77.86ZM106.359 77.545C106.359 77.795 106.344 78.065 106.314 78.355H99.7441C99.7841 79.165 100.054 79.805 100.554 80.275C101.064 80.745 101.684 80.98 102.414 80.98C103.004 80.98 103.494 80.845 103.884 80.575C104.284 80.295 104.564 79.925 104.724 79.465H106.194C105.974 80.255 105.534 80.9 104.874 81.4C104.214 81.89 103.394 82.135 102.414 82.135C101.634 82.135 100.934 81.96 100.314 81.61C99.7041 81.26 99.2241 80.765 98.8741 80.125C98.5241 79.475 98.3491 78.725 98.3491 77.875C98.3491 77.025 98.5191 76.28 98.8591 75.64C99.1991 75 99.6741 74.51 100.284 74.17C100.904 73.82 101.614 73.645 102.414 73.645C103.194 73.645 103.879 73.815 104.469 74.155C105.069 74.495 105.534 74.96 105.864 75.55C106.194 76.14 106.359 76.805 106.359 77.545ZM104.949 77.365C104.949 76.825 104.834 76.365 104.604 75.985C104.374 75.595 104.059 75.3 103.659 75.1C103.269 74.9 102.834 74.8 102.354 74.8C101.654 74.8 101.059 75.03 100.569 75.49C100.079 75.94 99.8091 76.565 99.7591 77.365H104.949ZM114.294 74.905V79.75C114.294 80.15 114.379 80.435 114.549 80.605C114.719 80.765 115.014 80.845 115.434 80.845H116.439V82H115.209C114.449 82 113.879 81.825 113.499 81.475C113.119 81.125 112.929 80.55 112.929 79.75V74.905H111.864V73.78H112.929V71.71H114.294V73.78H116.439V74.905H114.294ZM121.678 82.135C120.908 82.135 120.208 81.96 119.578 81.61C118.958 81.26 118.468 80.765 118.108 80.125C117.758 79.475 117.583 78.725 117.583 77.875C117.583 77.035 117.763 76.295 118.123 75.655C118.493 75.005 118.993 74.51 119.623 74.17C120.253 73.82 120.958 73.645 121.738 73.645C122.518 73.645 123.223 73.82 123.853 74.17C124.483 74.51 124.978 75 125.338 75.64C125.708 76.28 125.893 77.025 125.893 77.875C125.893 78.725 125.703 79.475 125.323 80.125C124.953 80.765 124.448 81.26 123.808 81.61C123.168 81.96 122.458 82.135 121.678 82.135ZM121.678 80.98C122.168 80.98 122.628 80.865 123.058 80.635C123.488 80.395 123.833 80.04 124.093 79.57C124.363 79.1 124.498 78.535 124.498 77.875C124.498 77.215 124.368 76.655 124.108 76.195C123.848 75.725 123.508 75.375 123.088 75.145C122.668 74.915 122.213 74.8 121.723 74.8C121.223 74.8 120.763 74.915 120.343 75.145C119.933 75.375 119.603 75.725 119.353 76.195C119.103 76.655 118.978 77.215 118.978 77.875C118.978 78.545 119.098 79.115 119.338 79.585C119.588 80.045 119.918 80.395 120.328 80.635C120.738 80.865 121.188 80.98 121.678 80.98ZM135.47 82.105C134.78 82.105 134.16 81.985 133.61 81.745C133.07 81.495 132.645 81.155 132.335 80.725C132.025 80.285 131.865 79.78 131.855 79.21H133.31C133.36 79.71 133.565 80.135 133.925 80.485C134.285 80.825 134.8 80.995 135.47 80.995C136.11 80.995 136.62 80.83 137 80.5C137.38 80.16 137.57 79.73 137.57 79.21C137.57 78.81 137.46 78.485 137.24 78.235C137.02 77.985 136.745 77.795 136.415 77.665C136.085 77.535 135.64 77.395 135.08 77.245C134.39 77.065 133.835 76.885 133.415 76.705C133.005 76.525 132.65 76.245 132.35 75.865C132.06 75.475 131.915 74.955 131.915 74.305C131.915 73.735 132.06 73.23 132.35 72.79C132.64 72.35 133.045 72.01 133.565 71.77C134.095 71.53 134.7 71.41 135.38 71.41C136.36 71.41 137.16 71.655 137.78 72.145C138.41 72.635 138.765 73.285 138.845 74.095H137.345C137.295 73.665 137.085 73.3 136.715 73C136.355 72.69 135.865 72.535 135.245 72.535C134.675 72.535 134.21 72.685 133.85 72.985C133.49 73.285 133.31 73.71 133.31 74.26C133.31 74.64 133.415 74.95 133.625 75.19C133.845 75.43 134.11 75.615 134.42 75.745C134.74 75.865 135.185 76.005 135.755 76.165C136.445 76.355 137 76.545 137.42 76.735C137.84 76.915 138.2 77.2 138.5 77.59C138.8 77.97 138.95 78.49 138.95 79.15C138.95 79.66 138.815 80.14 138.545 80.59C138.275 81.04 137.875 81.405 137.345 81.685C136.815 81.965 136.19 82.105 135.47 82.105ZM148.459 77.545C148.459 77.795 148.444 78.065 148.414 78.355H141.844C141.884 79.165 142.154 79.805 142.654 80.275C143.164 80.745 143.784 80.98 144.514 80.98C145.104 80.98 145.594 80.845 145.984 80.575C146.384 80.295 146.664 79.925 146.824 79.465H148.294C148.074 80.255 147.634 80.9 146.974 81.4C146.314 81.89 145.494 82.135 144.514 82.135C143.734 82.135 143.034 81.96 142.414 81.61C141.804 81.26 141.324 80.765 140.974 80.125C140.624 79.475 140.449 78.725 140.449 77.875C140.449 77.025 140.619 76.28 140.959 75.64C141.299 75 141.774 74.51 142.384 74.17C143.004 73.82 143.714 73.645 144.514 73.645C145.294 73.645 145.979 73.815 146.569 74.155C147.169 74.495 147.634 74.96 147.964 75.55C148.294 76.14 148.459 76.805 148.459 77.545ZM147.049 77.365C147.049 76.825 146.934 76.365 146.704 75.985C146.474 75.595 146.159 75.3 145.759 75.1C145.369 74.9 144.934 74.8 144.454 74.8C143.754 74.8 143.159 75.03 142.669 75.49C142.179 75.94 141.909 76.565 141.859 77.365H147.049ZM149.75 77.86C149.75 77.02 149.92 76.285 150.26 75.655C150.6 75.015 151.065 74.52 151.655 74.17C152.255 73.82 152.92 73.645 153.65 73.645C154.37 73.645 154.995 73.8 155.525 74.11C156.055 74.42 156.45 74.81 156.71 75.28V73.78H158.09V82H156.71V80.47C156.44 80.95 156.035 81.35 155.495 81.67C154.965 81.98 154.345 82.135 153.635 82.135C152.905 82.135 152.245 81.955 151.655 81.595C151.065 81.235 150.6 80.73 150.26 80.08C149.92 79.43 149.75 78.69 149.75 77.86ZM156.71 77.875C156.71 77.255 156.585 76.715 156.335 76.255C156.085 75.795 155.745 75.445 155.315 75.205C154.895 74.955 154.43 74.83 153.92 74.83C153.41 74.83 152.945 74.95 152.525 75.19C152.105 75.43 151.77 75.78 151.52 76.24C151.27 76.7 151.145 77.24 151.145 77.86C151.145 78.49 151.27 79.04 151.52 79.51C151.77 79.97 152.105 80.325 152.525 80.575C152.945 80.815 153.41 80.935 153.92 80.935C154.43 80.935 154.895 80.815 155.315 80.575C155.745 80.325 156.085 79.97 156.335 79.51C156.585 79.04 156.71 78.495 156.71 77.875ZM161.762 75.34C162.002 74.8 162.342 74.38 162.782 74.08C163.232 73.78 163.777 73.63 164.417 73.63V75.04H164.057C162.527 75.04 161.762 75.87 161.762 77.53V82H160.397V73.78H161.762V75.34ZM165.483 77.875C165.483 77.025 165.653 76.285 165.993 75.655C166.333 75.015 166.803 74.52 167.403 74.17C168.013 73.82 168.708 73.645 169.488 73.645C170.498 73.645 171.328 73.89 171.978 74.38C172.638 74.87 173.073 75.55 173.283 76.42H171.813C171.673 75.92 171.398 75.525 170.988 75.235C170.588 74.945 170.088 74.8 169.488 74.8C168.708 74.8 168.078 75.07 167.598 75.61C167.118 76.14 166.878 76.895 166.878 77.875C166.878 78.865 167.118 79.63 167.598 80.17C168.078 80.71 168.708 80.98 169.488 80.98C170.088 80.98 170.588 80.84 170.988 80.56C171.388 80.28 171.663 79.88 171.813 79.36H173.283C173.063 80.2 172.623 80.875 171.963 81.385C171.303 81.885 170.478 82.135 169.488 82.135C168.708 82.135 168.013 81.96 167.403 81.61C166.803 81.26 166.333 80.765 165.993 80.125C165.653 79.485 165.483 78.735 165.483 77.875ZM179.184 73.63C179.804 73.63 180.364 73.765 180.864 74.035C181.364 74.295 181.754 74.69 182.034 75.22C182.324 75.75 182.469 76.395 182.469 77.155V82H181.119V77.35C181.119 76.53 180.914 75.905 180.504 75.475C180.094 75.035 179.534 74.815 178.824 74.815C178.104 74.815 177.529 75.04 177.099 75.49C176.679 75.94 176.469 76.595 176.469 77.455V82H175.104V70.9H176.469V74.95C176.739 74.53 177.109 74.205 177.579 73.975C178.059 73.745 178.594 73.63 179.184 73.63Z" fill="#80818F"/>
<line x1="57.2929" y1="83.7071" x2="52.2929" y2="78.7071" stroke="#C8C8C8" stroke-width="2"/>
<circle cx="49" cy="76" r="5" stroke="black" stroke-opacity="0.2" stroke-width="2"/>
<path d="M0 10C0 4.47716 4.47715 0 10 0H502C507.523 0 512 4.47715 512 10V267C512 272.523 507.523 277 502 277H10C4.47715 277 0 272.523 0 267V10Z" fill="#8D99AE" fill-opacity="0.2"/>
</svg>
