<svg width="12" height="19" viewBox="0 0 12 19" fill="none" xmlns="http://www.w3.org/2000/svg">
<path d="M11.5 6.22414C11.5 6.97553 11.162 8.12299 10.6005 9.47932C10.0474 10.8154 9.30653 12.2879 8.56053 13.6627C7.81539 15.0358 7.06961 16.3035 6.50977 17.2282C6.3144 17.551 6.14182 17.8317 6 18.0603C5.85818 17.8317 5.6856 17.551 5.49023 17.2282C4.93039 16.3035 4.18461 15.0358 3.43947 13.6627C2.69347 12.2879 1.95256 10.8154 1.39948 9.47932C0.838033 8.12299 0.5 6.97553 0.5 6.22414C0.5 3.04534 2.97956 0.5 6 0.5C9.02044 0.5 11.5 3.04534 11.5 6.22414Z" fill="#D90429" stroke="#D90429"/>
<circle cx="6" cy="6" r="3" fill="white"/>
</svg>
