<svg width="17" height="17" viewBox="0 0 17 17" fill="none" xmlns="http://www.w3.org/2000/svg">
<g clip-path="url(#clip0)">
<path d="M16.6188 13.4353L13.9935 10.8096C13.4705 10.2888 12.6046 10.3046 12.0634 10.846L10.7407 12.1683C10.6572 12.1223 10.5707 12.0742 10.4797 12.0231C9.64447 11.5603 8.50128 10.926 7.29831 9.72216C6.09177 8.51577 5.45685 7.37082 4.99263 6.53502C4.94365 6.44647 4.89671 6.3611 4.85036 6.28003L5.73807 5.39363L6.17451 4.95667C6.71648 4.41454 6.73143 3.54881 6.20972 3.02647L3.58434 0.400501C3.06263 -0.121107 2.19626 -0.105283 1.65429 0.436838L0.914365 1.18101L0.934584 1.20108C0.686478 1.51766 0.479153 1.88279 0.324869 2.27653C0.182647 2.65133 0.0941007 3.00898 0.0536125 3.36737C-0.293052 6.2413 1.02025 8.86785 4.58438 12.432C9.51109 17.3584 13.4814 16.9862 13.6527 16.9681C14.0257 16.9235 14.3832 16.8344 14.7465 16.6933C15.1368 16.5408 15.5017 16.3337 15.8181 16.0862L15.8343 16.1005L16.5839 15.3665C17.1247 14.8245 17.1403 13.9585 16.6188 13.4353Z" fill="#D90429"/>
</g>
<defs>
<clipPath id="clip0">
<rect width="17" height="17" fill="white"/>
</clipPath>
</defs>
</svg>
