<svg width="94" height="33" viewBox="0 0 94 33" fill="none" xmlns="http://www.w3.org/2000/svg">
<path d="M24 9H4C2.34315 9 1 10.3431 1 12V28C1 29.6569 2.34315 31 4 31H24C25.6569 31 27 29.6569 27 28V12C27 10.3431 25.6569 9 24 9Z" stroke="#D90429" stroke-width="2"/>
<path d="M5 9C5.92308 6.33333 9.06154 1 14.2308 1C19.4 1 22.2308 6.33333 23 9" stroke="#D90429" stroke-width="2"/>
<circle cx="14" cy="19" r="3" fill="#D90429"/>
<path d="M44.082 17.0002H46.198V0.371163H41.874V2.28016H44.082V17.0002Z" fill="#D90429"/>
<path d="M49.7932 8.51316C49.7932 13.3432 50.9892 17.0002 55.5892 17.0002C60.1662 17.0002 61.3622 13.3432 61.3622 8.51316C61.3622 3.75216 60.1662 0.118164 55.5892 0.118164C50.9892 0.118164 49.7932 3.75216 49.7932 8.51316ZM59.2922 8.51316C59.2922 12.1012 58.8552 15.0912 55.5892 15.0912C52.3002 15.0912 51.8632 12.1012 51.8632 8.51316C51.8632 5.06316 52.3002 2.02716 55.5892 2.02716C58.8552 2.02716 59.2922 5.06316 59.2922 8.51316Z" fill="#D90429"/>
<path d="M64.2356 8.51316C64.2356 13.3432 65.4316 17.0002 70.0316 17.0002C74.6086 17.0002 75.8046 13.3432 75.8046 8.51316C75.8046 3.75216 74.6086 0.118164 70.0316 0.118164C65.4316 0.118164 64.2356 3.75216 64.2356 8.51316ZM73.7346 8.51316C73.7346 12.1012 73.2976 15.0912 70.0316 15.0912C66.7426 15.0912 66.3056 12.1012 66.3056 8.51316C66.3056 5.06316 66.7426 2.02716 70.0316 2.02716C73.2976 2.02716 73.7346 5.06316 73.7346 8.51316Z" fill="#D90429"/>
<path d="M78.218 4.12016C78.218 6.28216 79.667 7.57016 81.576 7.57016C83.508 7.57016 84.934 6.28216 84.934 4.12016C84.934 1.98116 83.508 0.693163 81.576 0.693163C79.667 0.693163 78.218 1.98116 78.218 4.12016ZM81.576 1.98116C82.588 1.98116 83.278 2.67116 83.278 4.12016C83.278 5.54616 82.588 6.28216 81.576 6.28216C80.564 6.28216 79.897 5.54616 79.897 4.12016C79.897 2.67116 80.564 1.98116 81.576 1.98116ZM80.265 17.0002H82.335L91.65 0.946164H89.58L80.265 17.0002ZM87.027 13.8262C87.027 15.9652 88.453 17.2762 90.385 17.2762C92.294 17.2762 93.72 15.9652 93.72 13.8262C93.72 11.6642 92.294 10.3762 90.385 10.3762C88.453 10.3762 87.027 11.6642 87.027 13.8262ZM90.362 11.6872C91.374 11.6872 92.064 12.3772 92.064 13.8262C92.064 15.2522 91.374 15.9422 90.362 15.9422C89.35 15.9422 88.66 15.2522 88.66 13.8262C88.66 12.3772 89.35 11.6872 90.362 11.6872Z" fill="#D90429"/>
<path d="M47.127 29.7782C47.127 27.0722 43.189 27.9302 43.189 26.3902C43.189 25.7632 43.64 25.4662 44.245 25.4882C44.905 25.4992 45.312 25.8952 45.345 26.4012H47.039C46.94 25.0152 45.862 24.2122 44.289 24.2122C42.705 24.2122 41.583 25.0482 41.583 26.4342C41.572 29.2172 45.532 28.2162 45.532 29.8772C45.532 30.4272 45.103 30.8122 44.377 30.8122C43.662 30.8122 43.255 30.4052 43.211 29.7892H41.561C41.583 31.2412 42.815 32.0772 44.41 32.0772C46.159 32.0772 47.127 30.9882 47.127 29.7782Z" fill="#D90429"/>
<path d="M54.3471 24.3112H49.8921V32.0002H54.3471V30.7462H51.4321V28.7112H54.0171V27.4902H51.4321V25.5652H54.3471V24.3112Z" fill="#D90429"/>
<path d="M56.8026 28.1502C56.8026 30.4492 58.4856 32.0662 60.6966 32.0662C62.4016 32.0662 63.7876 31.1642 64.3046 29.5802H62.5336C62.1706 30.3282 61.5106 30.6912 60.6856 30.6912C59.3436 30.6912 58.3866 29.7012 58.3866 28.1502C58.3866 26.5882 59.3436 25.6092 60.6856 25.6092C61.5106 25.6092 62.1706 25.9722 62.5336 26.7092H64.3046C63.7876 25.1362 62.4016 24.2232 60.6966 24.2232C58.4856 24.2232 56.8026 25.8512 56.8026 28.1502Z" fill="#D90429"/>
<path d="M67.028 29.0632C67.028 31.0872 68.414 32.0772 70.097 32.0772C71.78 32.0772 73.232 31.0872 73.232 29.0632V24.3222H71.681V29.0742C71.681 30.1302 71.109 30.6802 70.119 30.6802C69.14 30.6802 68.568 30.1302 68.568 29.0742V24.3222H67.028V29.0632Z" fill="#D90429"/>
<path d="M80.2199 26.7092C80.2199 27.4022 79.8349 27.8532 78.9769 27.8532H77.6899V25.5982H78.9769C79.8349 25.5982 80.2199 26.0272 80.2199 26.7092ZM76.1499 24.3222V32.0002H77.6899V29.0082H78.4159L80.1099 32.0002H81.8919L80.0549 28.8872C81.2869 28.5572 81.8039 27.6112 81.8039 26.6762C81.8039 25.3892 80.8799 24.3222 79.0319 24.3222H76.1499Z" fill="#D90429"/>
<path d="M89.0818 24.3112H84.6268V32.0002H89.0818V30.7462H86.1668V28.7112H88.7518V27.4902H86.1668V25.5652H89.0818V24.3112Z" fill="#D90429"/>
</svg>
